SplineFontDB: 3.0
FontName: Comme-Regular
FullName: Comme Regular
FamilyName: Comme
Weight: Regular
Copyright: Digitized data Copyright (c) 2011-2014, vernon adams.
Version: 2
ItalicAngle: 0
UnderlinePosition: 0
UnderlineWidth: 0
Ascent: 800
Descent: 200
UFOAscent: 761
UFODescent: -271
LayerCount: 2
Layer: 0 0 "Back"  1
Layer: 1 0 "Fore"  0
OS2Version: 0
OS2_WeightWidthSlopeOnly: 0
OS2_UseTypoMetrics: 0
CreationTime: 1396557368
ModificationTime: 1396557368
PfmFamily: 0
TTFWeight: 400
TTFWidth: 5
LineGap: 0
VLineGap: 0
OS2TypoAscent: 800
OS2TypoAOffset: 0
OS2TypoDescent: 1167
OS2TypoDOffset: 0
OS2TypoLinegap: 0
OS2WinAscent: 1167
OS2WinAOffset: 0
OS2WinDescent: 250
OS2WinDOffset: 0
HheadAscent: 0
HheadAOffset: 1
HheadDescent: 0
HheadDOffset: 1
OS2Vendor: 'NeWT'
Lookup: 4 0 1 "ligaStandardLigatureslookup0"  {"ligaStandardLigatureslookup0 subtable"  } ['liga' ('latn' <'dflt' > 'grek' <'dflt' > 'DFLT' <'dflt' > ) ]
Lookup: 4 0 0 "fracDiagonalFractionslookup11"  {"fracDiagonalFractionslookup11 subtable"  } ['frac' ('latn' <'dflt' 'CAT ' 'MOL ' 'ROM ' 'TRK ' > 'grek' <'dflt' > 'DFLT' <'dflt' > ) ]
Lookup: 6 0 0 "ordnOrdinalslookup12"  {"ordnOrdinalslookup12 contextual 0"  "ordnOrdinalslookup12 contextual 1"  } ['ordn' ('latn' <'dflt' 'CAT ' 'MOL ' 'ROM ' 'TRK ' > 'grek' <'dflt' > 'DFLT' <'dflt' > ) ]
Lookup: 1 0 0 "Single Substitution lookup 3"  {"Single Substitution lookup 3 subtable"  } []
Lookup: 1 0 0 "Single Substitution lookup 4"  {"Single Substitution lookup 4 subtable"  } []
Lookup: 4 0 0 "dligDiscretionaryLigatureslooku"  {"dligDiscretionaryLigatureslooku subtable"  } ['dlig' ('latn' <'dflt' 'CAT ' 'MOL ' 'ROM ' 'TRK ' > 'grek' <'dflt' > 'DFLT' <'dflt' > ) ]
DEI: 91125
ChainSub2: coverage "ordnOrdinalslookup12 contextual 1"  0 0 0 1
 1 1 0
  Coverage: 3 O o
  BCoverage: 49 zero one two three four five six seven eight nine
 1
  SeqLookup: 0 "Single Substitution lookup 4" 
EndFPST
ChainSub2: coverage "ordnOrdinalslookup12 contextual 0"  0 0 0 1
 1 1 0

StartChar: A
Encoding: 65 65 0
Width: 622
VWidth: 0
GlyphClass: 2
Flags: W
PickledData: "(dp1
S'org.pippin.gimp.org.kernagic'
p2
(dp3
S'lstem'
p4
I0
sS'rstem'
p5
I0
ssS'com.typemytype.robofont.layerData'
p6
(dp7
sS'org.robofab.postScriptHintData'
p8
(dp9
s."
AnchorPoint: "top" 327 676 basechar 0
AnchorPoint: "bot" 328 0 basechar 0
LayerCount: 2
Fore
SplineSet
282 676 m 257
 30 0 l 257
 118 0 l 257
 195 210 l 257
 461 210 l 257
 539 0 l 257
 629 0 l 257
 375 676 l 257
 282 676 l 257
216 272 m 257
 328 588 l 257
 441 272 l 257
 216 272 l 257
EndSplineSet
Substitution2: "Single Substitution lookup 3 subtable" ordfeminine
EndChar

StartChar: AE
Encoding: 198 198 1
Width: 705
VWidth: 0
GlyphClass: 2
Flags: W
PickledData: "(dp1
S'org.pippin.gimp.org.kernagic'
p2
(dp3
S'lstem'
p4
I0
sS'rstem'
p5
I0
ssS'com.typemytype.robofont.layerData'
p6
(dp7
sS'org.robofab.postScriptHintData'
p8
(dp9
s."
LayerCount: 2
Fore
SplineSet
362 277 m 257
 195 277 l 257
 362 598 l 257
 362 277 l 257
317 676 m 257
 -43 0 l 257
 52 0 l 257
 165 214 l 257
 362 214 l 257
 362 0 l 257
 720 0 l 257
 726 69 l 257
 445 69 l 257
 445 319 l 257
 688 319 l 257
 688 386 l 257
 445 386 l 257
 445 608 l 257
 716 608 l 257
 718 676 l 257
 317 676 l 257
EndSplineSet
EndChar

StartChar: B
Encoding: 66 66 13
Width: 603
VWidth: 0
GlyphClass: 2
Flags: W
PickledData: "(dp1
S'org.pippin.gimp.org.kernagic'
p2
(dp3
S'lstem'
p4
I0
sS'rstem'
p5
I0
ssS'com.typemytype.robofont.layerData'
p6
(dp7
sS'org.robofab.postScriptHintData'
p8
(dp9
s."
AnchorPoint: "top" 305 676 basechar 0
LayerCount: 2
Fore
SplineSet
259 -4 m 256
 486 -4 575 56 575 201 c 256
 575 284 536 343 437 366 c 257
 522 393 552 448 552 509 c 256
 552 583 536 680 289 680 c 256
 236 680 171 675 94 665 c 257
 94 4 l 257
 155 0 210 -4 259 -4 c 256
185 610 m 257
 226 614 260 615 292 615 c 256
 426 615 470 578 470 503 c 256
 470 412 394 395 309 395 c 258
 185 395 l 257
 185 610 l 257
185 332 m 257
 305 332 l 258
 432 332 487 294 487 197 c 256
 487 122 470 62 273 62 c 256
 247 62 218 64 185 66 c 257
 185 332 l 257
EndSplineSet
EndChar

StartChar: C
Encoding: 67 67 14
Width: 629
VWidth: 0
GlyphClass: 2
Flags: W
PickledData: "(dp1
S'org.pippin.gimp.org.kernagic'
p2
(dp3
S'lstem'
p4
I0
sS'rstem'
p5
I0
ssS'com.typemytype.robofont.layerData'
p6
(dp7
sS'org.robofab.postScriptHintData'
p8
(dp9
s."
AnchorPoint: "top" 359 676 basechar 0
AnchorPoint: "bot" 366 0 basechar 0
LayerCount: 2
Fore
SplineSet
623 509 m 257
 599 627 484 686 372 686 c 256
 192 686 71 559 71 338 c 256
 71 117 192 -9 372 -9 c 256
 485 -9 600 49 624 167 c 257
 558 191 l 257
 552 191 l 257
 535 117 461 61 377 61 c 256
 248 61 163 153 163 338 c 256
 163 523 247 613 377 613 c 256
 461 613 533 561 550 486 c 257
 556 486 l 257
 623 509 l 257
EndSplineSet
EndChar

StartChar: D
Encoding: 68 68 20
Width: 658
VWidth: 0
GlyphClass: 2
Flags: W
PickledData: "(dp1
S'org.pippin.gimp.org.kernagic'
p2
(dp3
S'lstem'
p4
I0
sS'rstem'
p5
I0
ssS'com.typemytype.robofont.layerData'
p6
(dp7
sS'com.fontlab.hintData'
p8
(dp9
S'vhints'
p10
((dp11
S'position'
p12
I593
sS'width'
p13
I57
stp14
sS'hhints'
p15
((dp16
g12
I0
sg13
I43
s(dp17
g12
I629
sg13
I43
stp18
ssS'org.robofab.postScriptHintData'
p19
(dp20
s."
HStem: 0 43 629 43
VStem: 593 57
AnchorPoint: "top" 344 676 basechar 0
AnchorPoint: "bot" 361 0 basechar 0
LayerCount: 2
Fore
SplineSet
94 4 m 257
 146 -2 194 -4 236 -4 c 256
 527 -4 625 138 625 346 c 256
 625 545 558 679 270 679 c 256
 218 679 159 673 94 665 c 257
 94 4 l 257
185 62 m 257
 185 609 l 257
 219 613 250 614 278 614 c 256
 489 614 535 510 535 343 c 256
 535 177 482 59 260 59 c 256
 237 59 211 59 185 62 c 257
EndSplineSet
EndChar

StartChar: uni0394
Encoding: 916 916 23
Width: 585
VWidth: 0
GlyphClass: 2
Flags: W
PickledData: "(dp1
S'org.pippin.gimp.org.kernagic'
p2
(dp3
S'lstem'
p4
I0
sS'rstem'
p5
I0
ssS'com.typemytype.robofont.layerData'
p6
(dp7
S'b'
(dp8
S'name'
p9
S'Delta'
p10
sS'lib'
p11
(dp12
sS'unicodes'
p13
(tsS'width'
p14
I1334
sS'contours'
p15
(tsS'components'
p16
(tsS'anchors'
p17
(tsssS'org.robofab.postScriptHintData'
p18
(dp19
s."
LayerCount: 2
Fore
SplineSet
122 71 m 257
 307 604 l 257
 493 71 l 257
 122 71 l 257
20 0 m 257
 596 0 l 257
 346 689 l 257
 266 689 l 257
 20 0 l 257
EndSplineSet
EndChar

StartChar: E
Encoding: 69 69 24
Width: 575
VWidth: 0
GlyphClass: 2
Flags: W
PickledData: "(dp1
S'org.pippin.gimp.org.kernagic'
p2
(dp3
S'lstem'
p4
I0
sS'rstem'
p5
I0
ssS'com.typemytype.robofont.layerData'
p6
(dp7
sS'org.robofab.postScriptHintData'
p8
(dp9
s."
AnchorPoint: "top" 342 676 basechar 0
AnchorPoint: "bot" 328 0 basechar 0
LayerCount: 2
Fore
SplineSet
94 676 m 257
 94 0 l 257
 540 0 l 257
 547 69 l 257
 185 69 l 257
 185 316 l 257
 509 316 l 257
 509 384 l 257
 185 384 l 257
 185 608 l 257
 536 608 l 257
 538 676 l 257
 94 676 l 257
EndSplineSet
EndChar

StartChar: Eng
Encoding: 330 330 33
Width: 666
VWidth: 0
GlyphClass: 2
Flags: W
PickledData: "(dp1
S'org.robofab.postScriptHintData'
p2
(dp3
s."
LayerCount: 2
Fore
SplineSet
531 424 m 257
 532 -1 l 258
 532 -100 509 -136 339 -136 c 257
 340 -202 l 257
 533 -202 612 -155 612 -2 c 258
 612 424 l 257
 531 424 l 257
EndSplineSet
Refer: 69 78 N 1 0 0 1 0 0 2
EndChar

StartChar: Euro
Encoding: 8364 8364 36
Width: 611
VWidth: 0
GlyphClass: 2
Flags: W
PickledData: "(dp1
S'org.pippin.gimp.org.kernagic'
p2
(dp3
S'lstem'
p4
I0
sS'rstem'
p5
I0
ssS'com.typemytype.robofont.layerData'
p6
(dp7
S'b'
(dp8
S'name'
p9
S'Euro'
p10
sS'lib'
p11
(dp12
sS'unicodes'
p13
(tsS'width'
p14
I1391
sS'contours'
p15
(tsS'components'
p16
(tsS'anchors'
p17
(tsssS'org.robofab.postScriptHintData'
p18
(dp19
s."
LayerCount: 2
Fore
SplineSet
-24 245 m 257
 376 245 l 257
 378 299 l 257
 99 299 l 257
 99 379 l 257
 378 379 l 257
 381 432 l 257
 -19 432 l 257
 -21 379 l 257
 57 379 l 257
 57 299 l 257
 -21 299 l 257
 -24 245 l 257
EndSplineSet
Refer: 14 67 N 1 0 0 1 -35 0 2
EndChar

StartChar: F
Encoding: 70 70 37
Width: 528
VWidth: 0
GlyphClass: 2
Flags: W
PickledData: "(dp1
S'org.pippin.gimp.org.kernagic'
p2
(dp3
S'lstem'
p4
I0
sS'rstem'
p5
I705
ssS'com.typemytype.robofont.layerData'
p6
(dp7
sS'org.robofab.postScriptHintData'
p8
(dp9
s."
AnchorPoint: "top" 342 676 basechar 0
LayerCount: 2
Fore
SplineSet
94 676 m 257
 94 0 l 257
 185 0 l 257
 185 306 l 257
 487 306 l 257
 487 372 l 257
 185 372 l 257
 185 606 l 257
 537 606 l 257
 543 676 l 257
 94 676 l 257
EndSplineSet
EndChar

StartChar: G
Encoding: 71 71 38
Width: 648
VWidth: 0
GlyphClass: 2
Flags: W
PickledData: "(dp1
S'org.pippin.gimp.org.kernagic'
p2
(dp3
S'lstem'
p4
I0
sS'rstem'
p5
I0
ssS'com.typemytype.robofont.layerData'
p6
(dp7
sS'org.robofab.postScriptHintData'
p8
(dp9
s."
AnchorPoint: "top" 370 676 basechar 0
AnchorPoint: "bot" 374 0 basechar 0
LayerCount: 2
Fore
SplineSet
381 -9 m 256
 474 -9 548 7 617 34 c 257
 617 357 l 257
 388 357 l 257
 384 297 l 257
 536 287 l 257
 536 80 l 257
 503 71 458 61 397 61 c 256
 226 61 163 170 163 342 c 256
 163 506 242 613 396 613 c 256
 480 613 537 579 567 546 c 257
 574 546 l 257
 620 594 l 257
 580 646 497 685 394 685 c 256
 190 685 71 551 71 341 c 256
 71 133 173 -9 381 -9 c 256
EndSplineSet
EndChar

StartChar: H
Encoding: 72 72 44
Width: 676
VWidth: 0
GlyphClass: 2
Flags: W
PickledData: "(dp1
S'org.pippin.gimp.org.kernagic'
p2
(dp3
S'lstem'
p4
I0
sS'rstem'
p5
I0
ssS'com.typemytype.robofont.layerData'
p6
(dp7
sS'org.robofab.postScriptHintData'
p8
(dp9
s."
AnchorPoint: "top" 364 676 basechar 0
LayerCount: 2
Fore
SplineSet
529 312 m 257
 529 0 l 257
 620 0 l 257
 620 676 l 257
 529 676 l 257
 529 383 l 257
 186 383 l 257
 186 676 l 257
 96 676 l 257
 96 0 l 257
 186 0 l 257
 186 312 l 257
 529 312 l 257
EndSplineSet
EndChar

StartChar: Hbar
Encoding: 294 294 45
Width: 652
VWidth: 0
GlyphClass: 2
Flags: W
PickledData: "(dp1
S'org.pippin.gimp.org.kernagic'
p2
(dp3
S'lstem'
p4
I0
sS'rstem'
p5
I0
ssS'com.typemytype.robofont.layerData'
p6
(dp7
sS'org.robofab.postScriptHintData'
p8
(dp9
s."
LayerCount: 2
Fore
SplineSet
30 593 m 257
 30 536 l 257
 655 536 l 257
 655 593 l 257
 30 593 l 257
EndSplineSet
Refer: 44 72 N 1 0 0 1 0 0 2
EndChar

StartChar: I
Encoding: 73 73 47
Width: 427
VWidth: 0
GlyphClass: 2
Flags: W
PickledData: "(dp1
S'org.pippin.gimp.org.kernagic'
p2
(dp3
S'lstem'
p4
I0
sS'rstem'
p5
I0
ssS'com.typemytype.robofont.layerData'
p6
(dp7
sS'com.fontlab.hintData'
p8
(dp9
S'vhints'
p10
((dp11
S'position'
p12
I52
sS'width'
p13
I245
stp14
sS'hhints'
p15
((dp16
g12
I0
sg13
I40
s(dp17
g12
I632
sg13
I40
stp18
ssS'org.robofab.postScriptHintData'
p19
(dp20
s."
HStem: 0 40 632 40
VStem: 52 245
AnchorPoint: "top" 224 676 basechar 0
LayerCount: 2
Fore
SplineSet
89 676 m 257
 89 621 l 257
 178 621 l 257
 178 55 l 257
 89 55 l 257
 89 0 l 257
 358 0 l 257
 358 55 l 257
 269 55 l 257
 269 621 l 257
 358 621 l 257
 358 676 l 257
 89 676 l 257
EndSplineSet
EndChar

StartChar: J
Encoding: 74 74 58
Width: 350
VWidth: 0
GlyphClass: 2
Flags: W
PickledData: "(dp1
S'org.pippin.gimp.org.kernagic'
p2
(dp3
S'lstem'
p4
I132
sS'rstem'
p5
I0
ssS'com.typemytype.robofont.layerData'
p6
(dp7
sS'org.robofab.postScriptHintData'
p8
(dp9
s."
AnchorPoint: "top" 220 676 basechar 0
LayerCount: 2
Fore
SplineSet
172 676 m 257
 172 15 l 258
 172 -66 169 -79 120 -99 c 258
 63 -123 l 257
 91 -191 l 257
 133 -176 l 257
 242 -136 262 -113 262 14 c 258
 262 676 l 257
 172 676 l 257
EndSplineSet
EndChar

StartChar: K
Encoding: 75 75 60
Width: 579
VWidth: 0
GlyphClass: 2
Flags: W
PickledData: "(dp1
S'org.pippin.gimp.org.kernagic'
p2
(dp3
S'lstem'
p4
I0
sS'rstem'
p5
I851
ssS'com.typemytype.robofont.layerData'
p6
(dp7
sS'org.robofab.postScriptHintData'
p8
(dp9
s."
AnchorPoint: "top" 319 676 basechar 0
AnchorPoint: "bot" 321 0 basechar 0
LayerCount: 2
Fore
SplineSet
601 676 m 257
 501 676 l 257
 185 354 l 257
 185 676 l 257
 94 676 l 257
 94 0 l 257
 185 0 l 257
 185 268 l 257
 258 339 l 257
 517 0 l 257
 617 0 l 257
 617 8 l 257
 324 388 l 257
 601 666 l 257
 601 676 l 257
EndSplineSet
EndChar

StartChar: L
Encoding: 76 76 62
Width: 484
VWidth: 0
GlyphClass: 2
Flags: W
PickledData: "(dp1
S'org.pippin.gimp.org.kernagic'
p2
(dp3
S'lstem'
p4
I0
sS'rstem'
p5
I597
ssS'com.typemytype.robofont.layerData'
p6
(dp7
sS'org.robofab.postScriptHintData'
p8
(dp9
s."
AnchorPoint: "top" 205 676 basechar 0
AnchorPoint: "bot" 294 0 basechar 0
LayerCount: 2
Fore
SplineSet
94 676 m 257
 94 0 l 257
 509 0 l 257
 511 68 l 257
 185 68 l 257
 185 676 l 257
 94 676 l 257
EndSplineSet
EndChar

StartChar: M
Encoding: 77 77 68
Width: 797
VWidth: 0
GlyphClass: 2
Flags: W
PickledData: "(dp1
S'org.pippin.gimp.org.kernagic'
p2
(dp3
S'lstem'
p4
I0
sS'rstem'
p5
I0
ssS'org.robofab.postScriptHintData'
p6
(dp7
sS'com.typemytype.robofont.layerData'
p8
(dp9
sS'com.fontlab.hintData'
p10
(dp11
S'vhints'
p12
((dp13
S'position'
p14
I85
sS'width'
p15
I77
s(dp16
g14
I99
sg15
I71
s(dp17
g14
I154
sg15
I15
s(dp18
g14
I679
sg15
I70
s(dp19
g14
I679
sg15
I18
s(dp20
g14
I685
sg15
I76
stp21
ssS'com.typemytype.robofont.guides'
p22
((dp23
S'y'
I378
sS'x'
I548
sS'magnetic'
p24
I5
sS'angle'
p25
I0
sS'isGlobal'
p26
I00
stp27
s."
VStem: 85 77 99 71 154 15 679 70 679 18 685 76
AnchorPoint: "top" 427 676 basechar 0
LayerCount: 2
Fore
SplineSet
84 0 m 257
 170 0 l 257
 170 223 l 257
 174 557 l 257
 384 80 l 257
 457 80 l 257
 669 554 l 257
 672 224 l 257
 672 0 l 257
 757 0 l 257
 757 225 l 257
 745 676 l 257
 642 676 l 257
 422 184 l 257
 204 676 l 257
 96 676 l 257
 84 225 l 257
 84 0 l 257
EndSplineSet
EndChar

StartChar: N
Encoding: 78 78 69
Width: 669
VWidth: 0
GlyphClass: 2
Flags: W
PickledData: "(dp1
S'org.pippin.gimp.org.kernagic'
p2
(dp3
S'lstem'
p4
I0
sS'rstem'
p5
I0
ssS'com.typemytype.robofont.layerData'
p6
(dp7
sS'org.robofab.postScriptHintData'
p8
(dp9
s."
AnchorPoint: "top" 365 676 basechar 0
AnchorPoint: "bot" 359 0 basechar 0
LayerCount: 2
Fore
SplineSet
532 676 m 257
 532 309 l 257
 536 116 l 257
 185 676 l 257
 94 676 l 257
 94 0 l 257
 176 0 l 257
 176 343 l 257
 169 554 l 257
 518 0 l 257
 612 0 l 257
 612 676 l 257
 532 676 l 257
EndSplineSet
EndChar

StartChar: O
Encoding: 79 79 74
Width: 711
VWidth: 0
GlyphClass: 2
Flags: W
PickledData: "(dp1
S'org.pippin.gimp.org.kernagic'
p2
(dp3
S'lstem'
p4
I0
sS'rstem'
p5
I0
ssS'org.robofab.postScriptHintData'
p6
(dp7
sS'com.typemytype.robofont.layerData'
p8
(dp9
sS'com.fontlab.hintData'
p10
(dp11
S'vhints'
p12
((dp13
S'position'
p14
I70
sS'width'
p15
I57
s(dp16
g14
I645
sg15
I57
stp17
sS'hhints'
p18
((dp19
g14
I-8
sg15
I44
s(dp20
g14
I636
sg15
I44
stp21
ssS'com.typemytype.robofont.guides'
p22
(ts."
HStem: -8 44 636 44
VStem: 70 57 645 57
AnchorPoint: "top" 377 676 basechar 0
LayerCount: 2
Fore
SplineSet
588 335 m 256
 588 172 532 61 376 61 c 256
 220 61 165 172 165 335 c 256
 165 504 225 613 377 613 c 256
 529 613 588 503 588 335 c 256
72 335 m 256
 72 124 169 -9 377 -9 c 256
 582 -9 680 127 680 334 c 256
 680 549 576 685 377 685 c 256
 172 685 72 550 72 335 c 256
EndSplineSet
Substitution2: "Single Substitution lookup 4 subtable" ordmasculine
EndChar

StartChar: OE
Encoding: 338 338 75
Width: 1034
VWidth: 0
GlyphClass: 2
Flags: W
PickledData: "(dp1
S'org.pippin.gimp.org.kernagic'
p2
(dp3
S'lstem'
p4
I0
sS'rstem'
p5
I0
ssS'com.typemytype.robofont.layerData'
p6
(dp7
S'b'
(dp8
S'name'
p9
S'OE'
p10
sS'lib'
p11
(dp12
sS'unicodes'
p13
(tsS'width'
p14
I2367
sS'contours'
p15
(tsS'components'
p16
(tsS'anchors'
p17
(tsssS'org.robofab.postScriptHintData'
p18
(dp19
s."
LayerCount: 2
Fore
SplineSet
581 335 m 256
 581 172 524 61 367 61 c 256
 210 61 154 172 154 335 c 256
 154 504 214 613 367 613 c 256
 521 613 581 503 581 335 c 256
64 336 m 256
 64 125 161 -9 367 -9 c 256
 462 -9 538 24 581 83 c 257
 581 0 l 257
 1025 0 l 257
 1030 69 l 257
 668 69 l 257
 668 316 l 257
 992 316 l 257
 992 383 l 257
 668 383 l 257
 668 608 l 257
 1020 608 l 257
 1023 676 l 257
 581 676 l 257
 581 589 l 257
 537 650 461 685 368 685 c 256
 165 685 64 551 64 336 c 256
EndSplineSet
EndChar

StartChar: Oslash
Encoding: 216 216 83
Width: 711
VWidth: 0
GlyphClass: 2
Flags: W
PickledData: "(dp1
S'org.pippin.gimp.org.kernagic'
p2
(dp3
S'lstem'
p4
I0
sS'rstem'
p5
I0
ssS'com.typemytype.robofont.layerData'
p6
(dp7
sS'org.robofab.postScriptHintData'
p8
(dp9
s."
AnchorPoint: "top" 377 676 basechar 0
LayerCount: 2
Fore
SplineSet
376 61 m 256
 353 61 332 66 313 70 c 257
 506 574 l 257
 565 528 588 444 588 335 c 256
 588 172 532 61 376 61 c 256
267 89 m 257
 193 130 165 219 165 335 c 256
 165 504 225 613 377 613 c 256
 409 613 437 608 460 600 c 257
 267 89 l 257
243 -117 m 257
 287 0 l 257
 314 -6 343 -9 377 -9 c 256
 582 -9 680 127 680 334 c 256
 680 483 631 594 534 648 c 257
 578 765 l 257
 529 784 l 257
 486 669 l 257
 453 681 417 685 377 685 c 256
 172 685 72 550 72 335 c 256
 72 179 127 63 240 16 c 257
 195 -99 l 257
 243 -117 l 257
EndSplineSet
EndChar

StartChar: P
Encoding: 80 80 86
Width: 574
VWidth: 0
GlyphClass: 2
Flags: W
PickledData: "(dp1
S'org.pippin.gimp.org.kernagic'
p2
(dp3
S'lstem'
p4
I0
sS'rstem'
p5
I807
ssS'com.typemytype.robofont.layerData'
p6
(dp7
sS'org.robofab.postScriptHintData'
p8
(dp9
s."
AnchorPoint: "top" 321 676 basechar 0
LayerCount: 2
Fore
SplineSet
94 665 m 257
 94 0 l 257
 185 0 l 257
 185 296 l 257
 221 293 253 290 283 290 c 256
 511 290 563 376 563 493 c 256
 563 616 494 679 289 679 c 256
 234 679 170 673 94 665 c 257
185 359 m 257
 185 609 l 257
 227 613 264 614 296 614 c 256
 448 614 479 570 479 491 c 256
 479 407 450 355 283 355 c 256
 255 355 223 356 185 359 c 257
EndSplineSet
EndChar

StartChar: Q
Encoding: 81 81 87
Width: 701
VWidth: 0
GlyphClass: 2
Flags: W
PickledData: "(dp1
S'org.pippin.gimp.org.kernagic'
p2
(dp3
S'lstem'
p4
I0
sS'rstem'
p5
I0
ssS'com.typemytype.robofont.layerData'
p6
(dp7
sS'org.robofab.postScriptHintData'
p8
(dp9
s."
LayerCount: 2
Fore
SplineSet
382 18 m 257
 383 14 534 -200 540 -205 c 257
 598 -163 l 257
 592 -158 463 26 459 31 c 257
 382 18 l 257
EndSplineSet
Refer: 74 79 N 1 0 0 1 0 0 2
EndChar

StartChar: R
Encoding: 82 82 88
Width: 594
VWidth: 0
GlyphClass: 2
Flags: W
PickledData: "(dp1
S'org.pippin.gimp.org.kernagic'
p2
(dp3
S'lstem'
p4
I0
sS'rstem'
p5
I839
ssS'com.typemytype.robofont.layerData'
p6
(dp7
sS'com.fontlab.hintData'
p8
(dp9
S'vhints'
p10
((dp11
S'position'
p12
I520
sS'width'
p13
I54
stp14
sS'hhints'
p15
((dp16
g12
I336
sg13
I44
s(dp17
g12
I629
sg13
I43
stp18
ssS'org.robofab.postScriptHintData'
p19
(dp20
s."
HStem: 336 44 629 43
VStem: 520 54
AnchorPoint: "top" 330 676 basechar 0
AnchorPoint: "bot" 335 0 basechar 0
LayerCount: 2
Fore
SplineSet
575 497 m 256
 575 626 503 680 308 680 c 256
 249 680 179 675 96 665 c 257
 96 0 l 257
 186 0 l 257
 186 307 l 257
 341 308 l 257
 497 0 l 257
 593 0 l 257
 593 9 l 257
 432 318 l 257
 523 341 575 396 575 497 c 256
308 614 m 256
 460 614 493 575 493 495 c 256
 493 405 456 369 304 369 c 258
 186 369 l 257
 186 609 l 257
 233 613 274 614 308 614 c 256
EndSplineSet
EndChar

StartChar: S
Encoding: 83 83 92
Width: 536
VWidth: 0
GlyphClass: 2
Flags: W
PickledData: "(dp1
S'org.pippin.gimp.org.kernagic'
p2
(dp3
S'lstem'
p4
I185
sS'rstem'
p5
I826
ssS'com.typemytype.robofont.guides'
p6
((dp7
S'y'
I973
sS'x'
I1035
sS'magnetic'
p8
I5
sS'angle'
p9
F90
sS'isGlobal'
p10
I00
s(dp11
S'y'
I382
sS'x'
I75
sg8
I5
sg9
F90
sg10
I00
stp12
sS'com.typemytype.robofont.layerData'
p13
(dp14
sS'org.robofab.postScriptHintData'
p15
(dp16
s."
AnchorPoint: "top" 288 684 basechar 0
AnchorPoint: "bot" 289 0 basechar 0
LayerCount: 2
Fore
SplineSet
425 178 m 256
 425 94 361 61 278 61 c 256
 217 61 151 86 108 128 c 257
 101 128 l 257
 53 79 l 257
 91 33 170 -9 278 -9 c 256
 391 -9 511 37 511 177 c 256
 511 296 447 333 337 376 c 258
 242 414 l 258
 168 445 145 460 145 513 c 256
 145 591 208 613 284 613 c 256
 353 613 411 591 446 550 c 257
 453 550 l 257
 501 597 l 257
 455 651 378 685 288 685 c 256
 168 685 54 646 54 502 c 256
 54 407 108 378 202 340 c 258
 297 301 l 258
 396 260 425 241 425 178 c 256
EndSplineSet
EndChar

StartChar: T
Encoding: 84 84 98
Width: 504
VWidth: 0
GlyphClass: 2
Flags: W
PickledData: "(dp1
S'org.pippin.gimp.org.kernagic'
p2
(dp3
S'lstem'
p4
I285
sS'rstem'
p5
I844
ssS'com.typemytype.robofont.layerData'
p6
(dp7
sS'org.robofab.postScriptHintData'
p8
(dp9
s."
AnchorPoint: "top" 268 676 basechar 0
AnchorPoint: "bot" 269 0 basechar 0
LayerCount: 2
Fore
SplineSet
3 676 m 257
 3 608 l 257
 221 608 l 257
 221 0 l 257
 311 0 l 257
 311 608 l 257
 530 608 l 257
 530 676 l 257
 3 676 l 257
EndSplineSet
EndChar

StartChar: Thorn
Encoding: 222 222 102
Width: 533
VWidth: 0
GlyphClass: 2
Flags: W
PickledData: "(dp1
S'org.pippin.gimp.org.kernagic'
p2
(dp3
S'lstem'
p4
I0
sS'rstem'
p5
I0
ssS'com.typemytype.robofont.layerData'
p6
(dp7
S'b'
(dp8
S'name'
p9
S'Thorn'
p10
sS'lib'
p11
(dp12
sS'unicodes'
p13
(tsS'width'
p14
I1192
sS'contours'
p15
(tsS'components'
p16
(tsS'anchors'
p17
(tsssS'org.robofab.postScriptHintData'
p18
(dp19
s."
LayerCount: 2
Fore
SplineSet
89 0 m 257
 178 0 l 257
 178 208 l 257
 263 208 l 258
 428 208 487 269 487 387 c 256
 487 508 399 547 262 547 c 258
 178 547 l 257
 178 692 l 257
 89 692 l 257
 89 0 l 257
178 482 m 257
 263 482 l 258
 352 482 397 462 397 385 c 256
 397 301 364 273 260 273 c 258
 178 273 l 257
 178 482 l 257
EndSplineSet
EndChar

StartChar: U
Encoding: 85 85 103
Width: 639
VWidth: 0
GlyphClass: 2
Flags: W
PickledData: "(dp1
S'org.pippin.gimp.org.kernagic'
p2
(dp3
S'lstem'
p4
I0
sS'rstem'
p5
I0
ssS'com.typemytype.robofont.layerData'
p6
(dp7
sS'org.robofab.postScriptHintData'
p8
(dp9
s."
AnchorPoint: "top" 341 676 basechar 0
AnchorPoint: "bot" 336 0 basechar 0
LayerCount: 2
Fore
SplineSet
503 676 m 257
 503 253 l 258
 503 127 455 62 337 62 c 256
 216 62 169 127 169 253 c 258
 169 676 l 257
 79 676 l 257
 79 251 l 258
 79 96 157 -9 337 -9 c 256
 515 -9 593 99 593 250 c 258
 593 676 l 257
 503 676 l 257
EndSplineSet
EndChar

StartChar: V
Encoding: 86 86 114
Width: 633
VWidth: 0
GlyphClass: 2
Flags: W
PickledData: "(dp1
S'org.pippin.gimp.org.kernagic'
p2
(dp3
S'lstem'
p4
I0
sS'rstem'
p5
I0
ssS'com.typemytype.robofont.layerData'
p6
(dp7
sS'org.robofab.postScriptHintData'
p8
(dp9
s."
LayerCount: 2
Fore
SplineSet
289 0 m 257
 373 0 l 257
 633 676 l 257
 536 676 l 257
 467 485 397 295 331 102 c 257
 266 296 197 485 128 676 c 257
 36 676 l 257
 289 0 l 257
EndSplineSet
EndChar

StartChar: W
Encoding: 87 87 115
Width: 869
VWidth: 0
GlyphClass: 2
Flags: W
PickledData: "(dp1
S'org.pippin.gimp.org.kernagic'
p2
(dp3
S'lstem'
p4
I0
sS'rstem'
p5
I0
ssS'com.typemytype.robofont.layerData'
p6
(dp7
sS'org.robofab.postScriptHintData'
p8
(dp9
s."
AnchorPoint: "top" 464 676 basechar 0
AnchorPoint: "bot" 461 0 basechar 0
LayerCount: 2
Fore
SplineSet
463 553 m 257
 621 0 l 257
 707 0 l 257
 882 676 l 257
 795 676 l 257
 662 114 l 257
 506 662 l 257
 421 662 l 257
 262 119 l 257
 117 676 l 257
 36 676 l 257
 215 0 l 257
 300 0 l 257
 463 553 l 257
EndSplineSet
EndChar

StartChar: X
Encoding: 88 88 120
Width: 567
VWidth: 0
GlyphClass: 2
Flags: W
PickledData: "(dp1
S'org.pippin.gimp.org.kernagic'
p2
(dp3
S'lstem'
p4
I0
sS'rstem'
p5
I0
ssS'com.typemytype.robofont.layerData'
p6
(dp7
sS'org.robofab.postScriptHintData'
p8
(dp9
s."
LayerCount: 2
Fore
SplineSet
347 338 m 257
 570 676 l 257
 473 676 l 257
 301 410 l 257
 123 676 l 257
 23 676 l 257
 245 342 l 257
 21 0 l 257
 114 0 l 257
 293 270 l 257
 472 0 l 257
 574 0 l 257
 347 338 l 257
EndSplineSet
EndChar

StartChar: Y
Encoding: 89 89 121
Width: 599
VWidth: 0
GlyphClass: 2
Flags: W
PickledData: "(dp1
S'org.pippin.gimp.org.kernagic'
p2
(dp3
S'lstem'
p4
I0
sS'rstem'
p5
I0
ssS'com.typemytype.robofont.layerData'
p6
(dp7
sS'org.robofab.postScriptHintData'
p8
(dp9
s."
AnchorPoint: "top" 317 676 basechar 0
LayerCount: 2
Fore
SplineSet
362 239 m 257
 597 676 l 257
 508 676 l 257
 317 318 l 257
 120 676 l 257
 35 676 l 257
 272 240 l 257
 272 0 l 257
 362 0 l 257
 362 239 l 257
EndSplineSet
EndChar

StartChar: Z
Encoding: 90 90 126
Width: 522
VWidth: 0
GlyphClass: 2
Flags: W
PickledData: "(dp1
S'org.pippin.gimp.org.kernagic'
p2
(dp3
S'lstem'
p4
I0
sS'rstem'
p5
I0
ssS'com.typemytype.robofont.layerData'
p6
(dp7
sS'org.robofab.postScriptHintData'
p8
(dp9
s."
AnchorPoint: "top" 308 676 basechar 0
AnchorPoint: "bot" 301 0 basechar 0
LayerCount: 2
Fore
SplineSet
42 0 m 257
 521 0 l 257
 525 68 l 257
 146 68 l 257
 520 613 l 257
 517 676 l 257
 57 676 l 257
 58 608 l 257
 420 608 l 257
 42 61 l 257
 42 0 l 257
EndSplineSet
EndChar

StartChar: a
Encoding: 97 97 130
Width: 491
VWidth: 0
GlyphClass: 2
Flags: W
PickledData: "(dp1
S'org.pippin.gimp.org.kernagic'
p2
(dp3
S'lstem'
p4
I0
sS'rstem'
p5
I0
ssS'org.robofab.postScriptHintData'
p6
(dp7
sS'com.typemytype.robofont.layerData'
p8
(dp9
sS'com.fontlab.hintData'
p10
(dp11
S'vhints'
p12
((dp13
S'position'
p14
I59
sS'width'
p15
I56
s(dp16
g14
I391
sg15
I15
s(dp17
g14
I405
sg15
I40
stp18
sS'hhints'
p19
((dp20
g14
I-6
sg15
I42
s(dp21
g14
I248
sg15
I38
s(dp22
g14
I456
sg15
I42
stp23
ssS'com.typemytype.robofont.guides'
p24
(ts."
HStem: -6 42 248 38 456 42
VStem: 59 56 391 15 405 40
AnchorPoint: "top" 261 502 basechar 0
AnchorPoint: "bot" 231 0 basechar 0
LayerCount: 2
Fore
SplineSet
227 51 m 256
 174 51 133 74 133 136 c 256
 133 194 166 224 268 224 c 258
 365 223 l 257
 365 118 l 257
 333 78 286 51 227 51 c 256
53 137 m 256
 53 39 118 -9 214 -9 c 256
 283 -9 334 14 374 61 c 257
 379 0 l 257
 450 0 l 257
 450 327 l 258
 450 463 371 513 258 513 c 256
 192 513 122 498 71 465 c 257
 95 402 l 257
 142 435 208 450 255 450 c 256
 328 450 365 415 365 335 c 258
 365 277 l 257
 258 278 l 257
 252 278 l 258
 114 278 53 227 53 137 c 256
EndSplineSet
Substitution2: "Single Substitution lookup 3 subtable" ordfeminine
EndChar

StartChar: acute
Encoding: 180 180 134
Width: 321
VWidth: 0
GlyphClass: 4
Flags: W
PickledData: "(dp1
S'org.robofab.postScriptHintData'
p2
(dp3
sS'com.typemytype.robofont.layerData'
p4
(dp5
s."
AnchorPoint: "top" 165 501 mark 0
LayerCount: 2
Fore
SplineSet
136 560 m 257
 191 560 l 257
 329 736 l 257
 226 736 l 257
 136 560 l 257
EndSplineSet
EndChar

StartChar: ae
Encoding: 230 230 136
Width: 728
VWidth: 0
GlyphClass: 2
Flags: W
PickledData: "(dp1
S'org.pippin.gimp.org.kernagic'
p2
(dp3
S'lstem'
p4
I0
sS'rstem'
p5
I0
ssS'com.typemytype.robofont.layerData'
p6
(dp7
sS'com.fontlab.hintData'
p8
(dp9
S'vhints'
p10
((dp11
S'position'
p12
I59
sS'width'
p13
I55
s(dp14
g12
I379
sg13
I54
s(dp15
g12
I379
sg13
I38
s(dp16
g12
I722
sg13
I45
stp17
sS'hhints'
p18
((dp19
g12
I-6
sg13
I45
s(dp20
g12
I241
sg13
I38
s(dp21
g12
I456
sg13
I42
stp22
ssS'org.robofab.postScriptHintData'
p23
(dp24
s."
HStem: -6 45 241 38 456 42
VStem: 59 55 379 54 379 38 722 45
AnchorPoint: "top" 422 501 basechar 0
LayerCount: 2
Fore
SplineSet
565 450 m 256
 637 450 661 405 661 351 c 256
 661 312 646 278 514 278 c 256
 489 278 458 278 422 281 c 257
 428 394 481 450 565 450 c 256
342 166 m 258
 339 92 283 51 204 51 c 256
 162 51 109 72 109 137 c 256
 109 194 132 236 233 236 c 256
 253 236 306 234 342 230 c 257
 342 166 l 258
737 359 m 256
 737 443 677 511 563 511 c 256
 491 511 432 485 395 417 c 257
 374 487 314 511 233 511 c 256
 154 511 97 492 38 452 c 257
 71 397 l 257
 129 435 189 448 235 448 c 256
 308 448 342 416 342 332 c 258
 342 284 l 257
 304 288 246 290 224 290 c 256
 80 290 28 228 28 137 c 256
 28 43 88 -5 178 -9 c 257
 258 -9 342 16 383 95 c 257
 418 26 484 -9 569 -9 c 256
 640 -9 699 12 741 40 c 257
 717 96 l 257
 676 73 638 53 579 53 c 256
 491 53 429 97 421 224 c 257
 459 222 495 218 529 218 c 256
 648 218 737 243 737 359 c 256
EndSplineSet
EndChar

StartChar: ampersand
Encoding: 38 38 141
Width: 623
VWidth: 0
GlyphClass: 2
Flags: W
PickledData: "(dp1
S'org.pippin.gimp.org.kernagic'
p2
(dp3
S'lstem'
p4
I0
sS'rstem'
p5
I0
ssS'com.typemytype.robofont.layerData'
p6
(dp7
sS'com.fontlab.hintData'
p8
(dp9
S'vhints'
p10
((dp11
S'position'
p12
I62
sS'width'
p13
I56
s(dp14
g12
I145
sg13
I49
s(dp15
g12
I425
sg13
I52
stp16
sS'hhints'
p17
((dp18
g12
I-8
sg13
I44
s(dp19
g12
I636
sg13
I44
stp20
ssS'org.robofab.postScriptHintData'
p21
(dp22
s."
HStem: -8 44 636 44
VStem: 62 56 145 49 425 52
LayerCount: 2
Fore
SplineSet
279 628 m 256
 339 628 370 595 370 540 c 256
 370 469 308 433 243 398 c 257
 190 459 175 495 175 538 c 256
 175 591 220 628 279 628 c 256
43 183 m 256
 43 70 125 -9 255 -9 c 256
 346 -9 415 27 468 79 c 257
 557 -11 l 257
 603 37 l 257
 511 129 l 257
 562 193 596 266 622 319 c 257
 570 354 l 257
 530 277 495 218 462 175 c 257
 282 355 l 257
 362 397 443 444 443 543 c 256
 443 638 373 688 279 688 c 256
 178 688 102 628 102 537 c 256
 102 479 125 428 184 367 c 257
 97 324 43 279 43 183 c 256
267 57 m 256
 175 57 121 106 121 186 c 256
 121 251 161 288 224 322 c 257
 421 126 l 257
 370 74 324 57 267 57 c 256
EndSplineSet
EndChar

StartChar: uni02BC
Encoding: 700 700 143
Width: 282
VWidth: 0
GlyphClass: 2
Flags: W
PickledData: "(dp1
S'org.robofab.postScriptHintData'
p2
(dp3
sS'com.typemytype.robofont.layerData'
p4
(dp5
s."
LayerCount: 2
Fore
SplineSet
53 535 m 257
 118 535 l 257
 118 535 164 697 171 738 c 257
 83 738 l 257
 81 717 53 535 53 535 c 257
EndSplineSet
EndChar

StartChar: approxequal
Encoding: 8776 8776 144
Width: 505
VWidth: 0
GlyphClass: 2
Flags: W
PickledData: "(dp1
S'org.pippin.gimp.org.kernagic'
p2
(dp3
S'lstem'
p4
I0
sS'rstem'
p5
I0
ssS'com.typemytype.robofont.layerData'
p6
(dp7
S'b'
(dp8
S'name'
p9
S'approxequal'
p10
sS'lib'
p11
(dp12
sS'unicodes'
p13
(tsS'width'
p14
I1136
sS'contours'
p15
(tsS'components'
p16
(tsS'anchors'
p17
(tsssS'org.robofab.postScriptHintData'
p18
(dp19
s."
LayerCount: 2
Fore
SplineSet
61 198 m 257
 81 240 118 274 159 274 c 256
 191 274 225 257 270 237 c 256
 310 218 343 205 377 205 c 256
 437 205 473 242 495 302 c 257
 470 342 l 257
 452 300 415 269 378 269 c 256
 351 269 313 287 271 306 c 256
 225 328 197 338 160 338 c 256
 99 338 58 297 38 243 c 257
 61 198 l 257
61 357 m 257
 81 399 118 432 159 432 c 256
 191 432 225 415 270 395 c 256
 310 376 343 362 377 362 c 256
 437 362 473 400 495 459 c 257
 470 498 l 257
 452 457 415 425 378 425 c 256
 351 425 313 443 271 462 c 256
 225 483 197 495 160 495 c 256
 99 495 58 454 38 400 c 257
 61 357 l 257
EndSplineSet
EndChar

StartChar: asciicircum
Encoding: 94 94 147
Width: 568
VWidth: 0
GlyphClass: 2
Flags: W
PickledData: "(dp1
S'org.pippin.gimp.org.kernagic'
p2
(dp3
S'lstem'
p4
I0
sS'rstem'
p5
I0
ssS'com.typemytype.robofont.layerData'
p6
(dp7
sS'org.robofab.postScriptHintData'
p8
(dp9
s."
LayerCount: 2
Fore
SplineSet
281 676 m 257
 42 137 l 257
 126 137 l 257
 300 543 l 257
 475 137 l 257
 558 137 l 257
 319 676 l 257
 281 676 l 257
EndSplineSet
EndChar

StartChar: asciitilde
Encoding: 126 126 148
Width: 523
VWidth: 0
GlyphClass: 2
Flags: W
PickledData: "(dp1
S'org.pippin.gimp.org.kernagic'
p2
(dp3
S'lstem'
p4
I0
sS'rstem'
p5
I0
ssS'com.typemytype.robofont.layerData'
p6
(dp7
S'b'
(dp8
S'name'
p9
S'asciitilde'
p10
sS'lib'
p11
(dp12
sS'unicodes'
p13
(tsS'width'
p14
I1192
sS'contours'
p15
(tsS'components'
p16
(tsS'anchors'
p17
(tsssS'org.robofab.postScriptHintData'
p18
(dp19
s."
LayerCount: 2
Fore
SplineSet
166 301 m 256
 222 301 320 233 383 233 c 256
 441 233 478 270 501 326 c 257
 478 370 l 257
 458 330 422 298 384 298 c 256
 357 298 321 316 278 335 c 256
 233 355 204 365 167 365 c 256
 107 365 66 326 45 274 c 257
 66 227 l 257
 87 267 125 301 166 301 c 256
EndSplineSet
EndChar

StartChar: asterisk
Encoding: 42 42 149
Width: 415
VWidth: 0
GlyphClass: 2
Flags: W
PickledData: "(dp1
S'org.pippin.gimp.org.kernagic'
p2
(dp3
S'lstem'
p4
I0
sS'rstem'
p5
I0
ssS'com.typemytype.robofont.layerData'
p6
(dp7
sS'org.robofab.postScriptHintData'
p8
(dp9
s."
LayerCount: 2
Fore
SplineSet
137 272 m 257
 218 430 l 257
 308 272 l 257
 331 287 349 297 372 312 c 257
 333 362 280 434 262 457 c 257
 421 493 l 257
 401 566 l 257
 243 499 l 257
 261 679 l 257
 183 679 l 257
 197 499 l 257
 42 566 l 257
 21 493 l 257
 179 457 l 257
 72 312 l 257
 137 272 l 257
EndSplineSet
EndChar

StartChar: at
Encoding: 64 64 150
Width: 852
VWidth: 0
GlyphClass: 2
Flags: W
PickledData: "(dp1
S'org.pippin.gimp.org.kernagic'
p2
(dp3
S'lstem'
p4
I0
sS'rstem'
p5
I0
ssS'com.typemytype.robofont.layerData'
p6
(dp7
sS'org.robofab.postScriptHintData'
p8
(dp9
s."
LayerCount: 2
Fore
SplineSet
417 156 m 256
 361 156 338 200 338 269 c 256
 338 372 397 451 480 451 c 256
 494 451 524 445 544 441 c 257
 524 323 l 257
 509 228 487 156 417 156 c 256
439 -91 m 256
 529 -91 620 -67 679 -26 c 257
 659 23 l 257
 597 -17 517 -31 440 -31 c 256
 247 -31 139 97 139 283 c 256
 139 477 266 631 467 631 c 256
 664 631 761 509 761 354 c 256
 761 226 703 160 650 160 c 256
 616 160 591 188 591 226 c 256
 591 285 608 372 622 468 c 257
 582 488 519 502 473 502 c 256
 340 502 269 383 269 266 c 256
 269 173 319 99 410 99 c 256
 474 99 516 150 539 203 c 257
 554 142 619 128 650 102 c 257
 730 102 824 185 824 349 c 256
 824 557 672 689 471 689 c 256
 239 689 69 517 69 285 c 256
 69 52 221 -91 439 -91 c 256
EndSplineSet
EndChar

StartChar: b
Encoding: 98 98 152
Width: 535
VWidth: 0
GlyphClass: 2
Flags: W
PickledData: "(dp1
S'org.pippin.gimp.org.kernagic'
p2
(dp3
S'lstem'
p4
I0
sS'rstem'
p5
I0
ssS'org.robofab.postScriptHintData'
p6
(dp7
sS'com.typemytype.robofont.layerData'
p8
(dp9
sS'com.fontlab.hintData'
p10
(dp11
S'vhints'
p12
((dp13
S'position'
p14
I90
sS'width'
p15
I58
s(dp16
g14
I90
sg15
I43
s(dp17
g14
I472
sg15
I57
stp18
sS'hhints'
p19
((dp20
g14
I-8
sg15
I42
s(dp21
g14
I455
sg15
I42
stp22
ssS'com.typemytype.robofont.guides'
p23
(ts."
HStem: -8 42 455 42
VStem: 90 58 90 43 472 57
AnchorPoint: "top" 308 501 basechar 0
LayerCount: 2
Fore
SplineSet
292 53 m 256
 237 53 189 74 158 116 c 257
 158 260 l 258
 158 376 202 451 301 451 c 256
 395 451 424 367 424 251 c 256
 424 130 384 53 292 53 c 256
313 513 m 256
 255 513 192 492 158 410 c 257
 163 515 l 257
 163 724 l 257
 78 715 l 257
 78 0 l 257
 147 0 l 257
 152 53 l 257
 183 17 233 -9 298 -9 c 256
 435 -9 511 95 511 251 c 256
 511 403 450 513 313 513 c 256
EndSplineSet
EndChar

StartChar: backslash
Encoding: 92 92 153
Width: 411
VWidth: 0
GlyphClass: 2
Flags: W
PickledData: "(dp1
S'org.pippin.gimp.org.kernagic'
p2
(dp3
S'lstem'
p4
I0
sS'rstem'
p5
I0
ssS'com.typemytype.robofont.layerData'
p6
(dp7
S'b'
(dp8
S'name'
p9
S'backslash'
p10
sS'lib'
p11
(dp12
sS'unicodes'
p13
(tsS'width'
p14
I937
sS'contours'
p15
(tsS'components'
p16
(tsS'anchors'
p17
(tsssS'org.robofab.postScriptHintData'
p18
(dp19
s."
LayerCount: 2
Fore
SplineSet
294 -7 m 257
 360 -7 l 257
 111 686 l 257
 44 686 l 257
 294 -7 l 257
EndSplineSet
EndChar

StartChar: bar
Encoding: 124 124 154
Width: 300
VWidth: 0
GlyphClass: 2
Flags: W
PickledData: "(dp1
S'org.pippin.gimp.org.kernagic'
p2
(dp3
S'lstem'
p4
I0
sS'rstem'
p5
I0
ssS'com.typemytype.robofont.layerData'
p6
(dp7
S'b'
(dp8
S'name'
p9
S'bar'
p10
sS'lib'
p11
(dp12
sS'unicodes'
p13
(tsS'width'
p14
I681
sS'contours'
p15
(tsS'components'
p16
(tsS'anchors'
p17
(tsssS'org.robofab.postScriptHintData'
p18
(dp19
s."
LayerCount: 2
Fore
SplineSet
121 685 m 257
 121 -129 l 257
 192 -129 l 257
 192 685 l 257
 121 685 l 257
EndSplineSet
EndChar

StartChar: braceleft
Encoding: 123 123 155
Width: 378
VWidth: 0
GlyphClass: 2
Flags: W
PickledData: "(dp1
S'org.pippin.gimp.org.kernagic'
p2
(dp3
S'lstem'
p4
I0
sS'rstem'
p5
I0
ssS'com.typemytype.robofont.layerData'
p6
(dp7
sS'org.robofab.postScriptHintData'
p8
(dp9
s."
LayerCount: 2
Fore
SplineSet
340 -121 m 257
 340 -61 l 257
 270 -61 266 -50 266 44 c 258
 266 156 l 258
 266 236 247 271 175 284 c 257
 247 297 266 333 266 412 c 258
 266 524 l 258
 266 617 270 631 340 631 c 257
 340 689 l 257
 203 689 182 666 182 532 c 258
 182 450 l 258
 182 351 182 319 90 319 c 257
 90 250 l 257
 183 250 182 217 182 118 c 258
 182 36 l 258
 182 -98 203 -121 340 -121 c 257
EndSplineSet
EndChar

StartChar: braceright
Encoding: 125 125 156
Width: 378
VWidth: 0
GlyphClass: 2
Flags: W
PickledData: "(dp1
S'org.pippin.gimp.org.kernagic'
p2
(dp3
S'lstem'
p4
I0
sS'rstem'
p5
I0
ssS'com.typemytype.robofont.layerData'
p6
(dp7
sS'org.robofab.postScriptHintData'
p8
(dp9
s."
LayerCount: 2
Fore
SplineSet
59 -121 m 257
 196 -121 217 -98 217 36 c 258
 217 118 l 258
 217 217 217 250 310 250 c 257
 310 319 l 257
 218 319 217 351 217 450 c 258
 217 532 l 258
 217 666 196 689 59 689 c 257
 59 631 l 257
 129 631 133 617 133 524 c 258
 133 412 l 258
 133 333 152 297 224 284 c 257
 152 271 133 236 133 156 c 258
 133 44 l 258
 133 -50 129 -61 59 -61 c 257
 59 -121 l 257
EndSplineSet
EndChar

StartChar: bracketleft
Encoding: 91 91 157
Width: 360
VWidth: 0
GlyphClass: 2
Flags: W
PickledData: "(dp1
S'org.pippin.gimp.org.kernagic'
p2
(dp3
S'lstem'
p4
I0
sS'rstem'
p5
I0
ssS'com.typemytype.robofont.layerData'
p6
(dp7
sS'org.robofab.postScriptHintData'
p8
(dp9
s."
LayerCount: 2
Fore
SplineSet
100 -118 m 257
 316 -118 l 257
 316 -59 l 257
 186 -59 l 257
 186 625 l 257
 316 625 l 257
 316 685 l 257
 100 685 l 257
 100 -118 l 257
EndSplineSet
EndChar

StartChar: bracketright
Encoding: 93 93 158
Width: 423
VWidth: 0
GlyphClass: 2
Flags: W
PickledData: "(dp1
S'org.pippin.gimp.org.kernagic'
p2
(dp3
S'lstem'
p4
I0
sS'rstem'
p5
I0
ssS'com.typemytype.robofont.layerData'
p6
(dp7
sS'org.robofab.postScriptHintData'
p8
(dp9
s."
LayerCount: 2
Fore
SplineSet
134 -118 m 257
 347 -118 l 257
 347 685 l 257
 134 685 l 257
 134 625 l 257
 263 625 l 257
 263 -59 l 257
 134 -59 l 257
 134 -118 l 257
EndSplineSet
EndChar

StartChar: breve
Encoding: 728 728 159
Width: 383
VWidth: 0
GlyphClass: 4
Flags: W
PickledData: "(dp1
S'org.robofab.postScriptHintData'
p2
(dp3
sS'com.typemytype.robofont.layerData'
p4
(dp5
s."
AnchorPoint: "top" 197 495 mark 0
LayerCount: 2
Fore
SplineSet
196 597 m 256
 260 597 310 633 310 710 c 257
 258 710 l 257
 258 668 226 650 196 650 c 256
 166 650 137 668 137 710 c 257
 82 710 l 257
 82 633 133 597 196 597 c 256
EndSplineSet
EndChar

StartChar: uni0311
Encoding: 785 785 160
Width: 350
VWidth: 0
GlyphClass: 4
Flags: W
PickledData: "(dp1
S'org.robofab.postScriptHintData'
p2
(dp3
sS'com.typemytype.robofont.layerData'
p4
(dp5
s."
AnchorPoint: "top" 191 495 mark 0
LayerCount: 2
Fore
SplineSet
76 597 m 257
 130 597 l 257
 130 639 159 659 189 659 c 256
 219 659 250 639 250 597 c 257
 303 597 l 257
 303 673 252 710 189 710 c 256
 126 710 76 674 76 597 c 257
EndSplineSet
EndChar

StartChar: brokenbar
Encoding: 166 166 161
Width: 290
VWidth: 0
GlyphClass: 2
Flags: W
PickledData: "(dp1
S'org.pippin.gimp.org.kernagic'
p2
(dp3
S'lstem'
p4
I0
sS'rstem'
p5
I0
ssS'com.typemytype.robofont.layerData'
p6
(dp7
S'b'
(dp8
S'name'
p9
S'brokenbar'
p10
sS'lib'
p11
(dp12
sS'unicodes'
p13
(tsS'width'
p14
I653
sS'contours'
p15
(tsS'components'
p16
(tsS'anchors'
p17
(tsssS'org.robofab.postScriptHintData'
p18
(dp19
s."
LayerCount: 2
Fore
SplineSet
123 728 m 257
 123 380 l 257
 186 380 l 257
 186 728 l 257
 123 728 l 257
123 246 m 257
 123 -104 l 257
 186 -104 l 257
 186 246 l 257
 123 246 l 257
EndSplineSet
EndChar

StartChar: bullet
Encoding: 8226 8226 162
Width: 400
VWidth: 0
GlyphClass: 2
Flags: W
PickledData: "(dp1
S'org.pippin.gimp.org.kernagic'
p2
(dp3
S'lstem'
p4
I0
sS'rstem'
p5
I0
ssS'com.typemytype.robofont.layerData'
p6
(dp7
S'b'
(dp8
S'name'
p9
S'bullet'
p10
sS'lib'
p11
(dp12
sS'unicodes'
p13
(tsS'width'
p14
I908
sS'contours'
p15
(tsS'components'
p16
(tsS'anchors'
p17
(tsssS'org.robofab.postScriptHintData'
p18
(dp19
s."
LayerCount: 2
Fore
SplineSet
206 189 m 256
 285 189 357 246 357 344 c 256
 357 441 287 497 209 497 c 256
 130 497 60 439 60 341 c 256
 60 244 128 189 206 189 c 256
EndSplineSet
EndChar

StartChar: c
Encoding: 99 99 163
Width: 478
VWidth: 0
GlyphClass: 2
Flags: W
PickledData: "(dp1
S'org.pippin.gimp.org.kernagic'
p2
(dp3
S'lstem'
p4
I0
sS'rstem'
p5
I696
ssS'org.robofab.postScriptHintData'
p6
(dp7
sS'com.typemytype.robofont.layerData'
p8
(dp9
sS'com.fontlab.hintData'
p10
(dp11
S'vhints'
p12
((dp13
S'position'
p14
I59
sS'width'
p15
I56
stp16
sS'hhints'
p17
((dp18
g14
I-8
sg15
I42
s(dp19
g14
I455
sg15
I42
stp20
ssS'com.typemytype.robofont.guides'
p21
((dp22
S'y'
I417
sS'x'
I962
sS'magnetic'
p23
I5
sS'angle'
p24
F90
sS'isGlobal'
p25
I00
s(dp26
S'y'
I1020
sS'x'
I565
sg23
I5
sg24
F90
sg25
I00
s(dp27
S'y'
I994
sS'x'
I572
sg23
I5
sg24
F90
sg25
I00
stp28
s."
HStem: -8 42 455 42
VStem: 59 56
AnchorPoint: "top" 289 502 basechar 0
AnchorPoint: "bot" 281 0 basechar 0
LayerCount: 2
Fore
SplineSet
404 127 m 257
 381 85 349 54 287 54 c 258
 286 54 l 258
 190 54 141 128 141 251 c 256
 141 376 191 450 287 450 c 256
 349 450 382 418 405 376 c 257
 412 376 l 257
 463 406 l 257
 441 458 393 513 283 513 c 256
 144 513 55 410 55 251 c 256
 55 92 144 -9 283 -9 c 256
 393 -9 442 46 463 98 c 257
 412 127 l 257
 404 127 l 257
EndSplineSet
EndChar

StartChar: caron
Encoding: 711 711 165
Width: 394
VWidth: 0
GlyphClass: 4
Flags: W
PickledData: "(dp1
S'org.robofab.postScriptHintData'
p2
(dp3
sS'com.typemytype.robofont.layerData'
p4
(dp5
s."
AnchorPoint: "top" 206 501 mark 0
LayerCount: 2
Fore
SplineSet
155 574 m 257
 244 574 l 257
 336 736 l 257
 262 736 l 257
 199 629 l 257
 137 736 l 257
 63 736 l 257
 155 574 l 257
EndSplineSet
EndChar

StartChar: caron.alt
Encoding: 65536 -1 166
Width: 322
VWidth: 0
GlyphClass: 4
Flags: W
PickledData: "(dp1
S'org.robofab.postScriptHintData'
p2
(dp3
sS'com.typemytype.robofont.layerData'
p4
(dp5
s."
AnchorPoint: "caron.alt" 99 501 mark 0
LayerCount: 2
Fore
SplineSet
214 537 m 257
 277 537 l 257
 313 716 l 257
 231 716 l 257
 214 537 l 257
EndSplineSet
EndChar

StartChar: cedilla
Encoding: 184 184 171
Width: 300
VWidth: 0
GlyphClass: 4
Flags: W
PickledData: "(dp1
S'org.robofab.postScriptHintData'
p2
(dp3
sS'com.typemytype.robofont.layerData'
p4
(dp5
s."
AnchorPoint: "bot" 186 4 mark 0
LayerCount: 2
Fore
SplineSet
165 -186 m 256
 231 -186 281 -151 281 -94 c 256
 281 -43 246 -19 203 -19 c 256
 188 -19 171 -21 154 -27 c 257
 154 -53 l 257
 164 -51 172 -50 179 -50 c 256
 219 -50 230 -71 230 -91 c 256
 230 -126 199 -145 161 -145 c 256
 143 -145 125 -140 106 -132 c 257
 91 -171 l 257
 114 -182 140 -186 165 -186 c 256
EndSplineSet
EndChar

StartChar: cent
Encoding: 162 162 172
Width: 472
VWidth: 0
GlyphClass: 2
Flags: W
PickledData: "(dp1
S'org.pippin.gimp.org.kernagic'
p2
(dp3
S'lstem'
p4
I0
sS'rstem'
p5
I0
ssS'com.typemytype.robofont.layerData'
p6
(dp7
sS'org.robofab.postScriptHintData'
p8
(dp9
s."
LayerCount: 2
Fore
SplineSet
250 16 m 257
 250 -144 l 257
 304 -144 l 257
 312 16 l 257
 250 16 l 257
255 644 m 257
 250 492 l 257
 307 492 l 257
 308 644 l 257
 255 644 l 257
EndSplineSet
Refer: 163 99 N 1 0 0 1 0 0 2
EndChar

StartChar: circumflex
Encoding: 710 710 173
Width: 388
VWidth: 0
GlyphClass: 4
Flags: W
PickledData: "(dp1
S'org.robofab.postScriptHintData'
p2
(dp3
sS'com.typemytype.robofont.layerData'
p4
(dp5
s."
AnchorPoint: "top" 202 501 mark 0
LayerCount: 2
Fore
SplineSet
62 581 m 257
 136 581 l 257
 199 687 l 257
 262 581 l 257
 336 581 l 257
 244 741 l 257
 155 741 l 257
 62 581 l 257
EndSplineSet
EndChar

StartChar: colon
Encoding: 58 58 174
Width: 288
VWidth: 0
GlyphClass: 2
Flags: W
PickledData: "(dp1
S'org.pippin.gimp.org.kernagic'
p2
(dp3
S'lstem'
p4
I0
sS'rstem'
p5
I0
ssS'com.typemytype.robofont.layerData'
p6
(dp7
S'b'
(dp8
S'name'
p9
S'colon'
p10
sS'lib'
p11
(dp12
sS'unicodes'
p13
(tsS'width'
p14
I653
sS'contours'
p15
(tsS'components'
p16
(tsS'anchors'
p17
(tsssS'org.robofab.postScriptHintData'
p18
(dp19
s."
LayerCount: 2
Fore
SplineSet
151 -4 m 256
 190 -4 208 23 208 54 c 256
 208 85 190 113 151 113 c 256
 112 113 93 85 93 54 c 256
 93 23 112 -4 151 -4 c 256
151 386 m 256
 190 386 208 413 208 444 c 256
 208 475 190 503 151 503 c 256
 112 503 93 475 93 444 c 256
 93 413 112 386 151 386 c 256
EndSplineSet
EndChar

StartChar: comma
Encoding: 44 44 175
Width: 276
VWidth: 0
GlyphClass: 2
Flags: W
PickledData: "(dp1
S'org.pippin.gimp.org.kernagic'
p2
(dp3
S'lstem'
p4
I0
sS'rstem'
p5
I0
ssS'com.typemytype.robofont.layerData'
p6
(dp7
sS'org.robofab.postScriptHintData'
p8
(dp9
s."
LayerCount: 2
Fore
SplineSet
90 -141 m 257
 138 -141 l 257
 194 69 l 257
 194 111 l 257
 109 111 l 257
 109 108 90 -141 90 -141 c 257
EndSplineSet
EndChar

StartChar: uni0326
Encoding: 806 806 176
Width: 268
VWidth: 0
GlyphClass: 4
Flags: W
PickledData: "(dp1
S'org.robofab.postScriptHintData'
p2
(dp3
s."
AnchorPoint: "bot" 153 0 mark 0
LayerCount: 2
Fore
SplineSet
91 -243 m 257
 147 -243 l 257
 147 -243 193 -81 193 -61 c 257
 112 -61 l 257
 112 -94 91 -243 91 -243 c 257
EndSplineSet
EndChar

StartChar: uni0312
Encoding: 786 786 177
Width: 262
VWidth: 0
GlyphClass: 4
Flags: W
PickledData: "(dp1
S'org.robofab.postScriptHintData'
p2
(dp3
s."
AnchorPoint: "top" 137 495 mark 0
LayerCount: 2
Fore
SplineSet
92 605 m 257
 91 594 l 257
 182 594 l 257
 182 627 196 828 196 828 c 257
 140 828 l 257
 140 828 92 624 92 605 c 257
EndSplineSet
EndChar

StartChar: copyright
Encoding: 169 169 178
Width: 751
VWidth: 0
GlyphClass: 2
Flags: W
PickledData: "(dp1
S'org.pippin.gimp.org.kernagic'
p2
(dp3
S'lstem'
p4
I0
sS'rstem'
p5
I0
ssS'com.typemytype.robofont.layerData'
p6
(dp7
sS'org.robofab.postScriptHintData'
p8
(dp9
s."
LayerCount: 2
Fore
SplineSet
356 -11 m 256
 535 -11 711 113 711 338 c 256
 711 565 534 686 356 686 c 256
 179 686 4 565 4 338 c 256
 4 113 179 -11 356 -11 c 256
356 32 m 256
 201 32 53 141 53 338 c 256
 53 535 201 643 356 643 c 256
 512 643 660 535 660 338 c 256
 660 142 512 32 356 32 c 256
364 110 m 256
 410 110 456 124 496 148 c 257
 479 188 l 257
 439 165 403 156 366 156 c 256
 275 156 203 224 203 338 c 256
 203 445 274 517 363 517 c 256
 397 517 440 504 474 481 c 257
 495 524 l 257
 454 550 408 565 361 565 c 256
 243 565 142 469 142 337 c 256
 142 201 246 110 364 110 c 256
EndSplineSet
EndChar

StartChar: currency
Encoding: 164 164 179
Width: 508
VWidth: 0
GlyphClass: 2
Flags: W
PickledData: "(dp1
S'org.pippin.gimp.org.kernagic'
p2
(dp3
S'lstem'
p4
I0
sS'rstem'
p5
I0
ssS'com.typemytype.robofont.layerData'
p6
(dp7
S'b'
(dp8
S'name'
p9
S'currency'
p10
sS'lib'
p11
(dp12
sS'unicodes'
p13
(tsS'width'
p14
I1164
sS'contours'
p15
(tsS'components'
p16
(tsS'anchors'
p17
(tsssS'org.robofab.postScriptHintData'
p18
(dp19
s."
LayerCount: 2
Fore
SplineSet
406 335 m 256
 406 256 352 188 267 188 c 256
 183 188 128 256 128 335 c 256
 128 414 183 481 267 481 c 256
 351 481 406 414 406 335 c 256
386 483 m 257
 352 510 311 528 267 528 c 256
 223 528 182 511 148 484 c 257
 64 565 l 257
 34 533 l 257
 117 451 l 257
 93 417 80 377 80 335 c 256
 80 293 94 254 117 220 c 257
 34 137 l 257
 64 104 l 257
 148 186 l 257
 182 159 222 142 267 142 c 256
 312 142 352 160 386 186 c 257
 471 104 l 257
 499 137 l 257
 417 220 l 257
 440 254 454 293 454 335 c 256
 454 376 441 416 417 451 c 257
 500 532 l 257
 471 565 l 257
 386 483 l 257
EndSplineSet
EndChar

StartChar: d
Encoding: 100 100 180
Width: 540
VWidth: 0
GlyphClass: 2
Flags: W
PickledData: "(dp1
S'org.pippin.gimp.org.kernagic'
p2
(dp3
S'lstem'
p4
I0
sS'rstem'
p5
I0
ssS'com.typemytype.robofont.layerData'
p6
(dp7
sS'com.fontlab.hintData'
p8
(dp9
S'vhints'
p10
((dp11
S'position'
p12
I53
sS'width'
p13
I77
s(dp14
g12
I421
sg13
I75
s(dp15
g12
I432
sg13
I63
stp16
sS'hhints'
p17
((dp18
g12
I-8
sg13
I59
s(dp19
g12
I441
sg13
I59
stp20
ssS'org.robofab.postScriptHintData'
p21
(dp22
s."
HStem: -8 59 441 59
VStem: 53 77 421 75 432 63
AnchorPoint: "top" 250 501 basechar 0
AnchorPoint: "caron.alt" 529 556 basechar 0
LayerCount: 2
Fore
SplineSet
280 53 m 256
 186 53 141 126 141 253 c 256
 141 376 188 451 280 451 c 256
 334 451 381 431 406 393 c 257
 406 107 l 257
 376 71 333 53 280 53 c 256
270 -9 m 256
 321 -9 377 13 414 55 c 257
 418 0 l 257
 491 0 l 257
 491 724 l 257
 403 715 l 257
 403 535 l 257
 406 460 l 257
 378 491 336 512 278 512 c 258
 273 512 l 257
 270 512 l 258
 135 512 55 408 55 252 c 256
 55 97 130 -9 270 -9 c 256
EndSplineSet
EndChar

StartChar: dagger
Encoding: 8224 8224 181
Width: 465
VWidth: 0
GlyphClass: 2
Flags: W
PickledData: "(dp1
S'org.pippin.gimp.org.kernagic'
p2
(dp3
S'lstem'
p4
I0
sS'rstem'
p5
I0
ssS'com.typemytype.robofont.layerData'
p6
(dp7
S'b'
(dp8
S'name'
p9
S'dagger'
p10
sS'lib'
p11
(dp12
sS'unicodes'
p13
(tsS'width'
p14
I1050
sS'contours'
p15
(tsS'components'
p16
(tsS'anchors'
p17
(tsssS'org.robofab.postScriptHintData'
p18
(dp19
s."
LayerCount: 2
Fore
SplineSet
213 691 m 257
 213 515 l 257
 80 515 l 257
 80 462 l 257
 213 462 l 257
 213 44 l 257
 273 44 l 257
 273 462 l 257
 411 462 l 257
 411 515 l 257
 273 515 l 257
 273 691 l 257
 213 691 l 257
EndSplineSet
EndChar

StartChar: daggerdbl
Encoding: 8225 8225 182
Width: 452
VWidth: 0
GlyphClass: 2
Flags: W
PickledData: "(dp1
S'org.pippin.gimp.org.kernagic'
p2
(dp3
S'lstem'
p4
I0
sS'rstem'
p5
I0
ssS'com.typemytype.robofont.layerData'
p6
(dp7
S'b'
(dp8
S'name'
p9
S'daggerdbl'
p10
sS'lib'
p11
(dp12
sS'unicodes'
p13
(tsS'width'
p14
I1022
sS'contours'
p15
(tsS'components'
p16
(tsS'anchors'
p17
(tsssS'org.robofab.postScriptHintData'
p18
(dp19
s."
LayerCount: 2
Fore
SplineSet
213 683 m 257
 213 506 l 257
 82 506 l 257
 82 455 l 257
 213 455 l 257
 213 254 l 257
 82 254 l 257
 82 206 l 257
 213 206 l 257
 213 26 l 257
 272 26 l 257
 272 206 l 257
 401 206 l 257
 401 254 l 257
 273 254 l 257
 273 455 l 257
 401 455 l 257
 401 506 l 257
 271 506 l 257
 271 683 l 257
 213 683 l 257
EndSplineSet
EndChar

StartChar: uni030F
Encoding: 783 783 183
Width: 390
VWidth: 0
GlyphClass: 4
Flags: W
PickledData: "(dp1
S'org.robofab.postScriptHintData'
p2
(dp3
sS'com.typemytype.robofont.layerData'
p4
(dp5
s."
AnchorPoint: "top" 224 495 mark 0
LayerCount: 2
Fore
SplineSet
260 578 m 257
 311 578 l 257
 251 741 l 257
 173 741 l 257
 260 578 l 257
132 578 m 257
 183 578 l 257
 113 741 l 257
 27 741 l 257
 132 578 l 257
EndSplineSet
EndChar

StartChar: degree
Encoding: 176 176 186
Width: 384
VWidth: 0
GlyphClass: 2
Flags: W
PickledData: "(dp1
S'org.pippin.gimp.org.kernagic'
p2
(dp3
S'lstem'
p4
I0
sS'rstem'
p5
I0
ssS'com.typemytype.robofont.layerData'
p6
(dp7
sS'org.robofab.postScriptHintData'
p8
(dp9
s."
LayerCount: 2
Fore
SplineSet
198 414 m 256
 276 414 339 473 339 551 c 256
 339 631 274 686 198 686 c 256
 123 686 60 631 60 551 c 256
 60 471 123 414 198 414 c 256
198 460 m 256
 151 460 113 496 113 550 c 256
 113 603 152 640 199 640 c 256
 246 640 287 603 287 550 c 256
 287 496 247 460 198 460 c 256
EndSplineSet
EndChar

StartChar: dieresis
Encoding: 168 168 187
Width: 410
VWidth: 0
GlyphClass: 4
Flags: W
PickledData: "(dp1
S'org.robofab.postScriptHintData'
p2
(dp3
sS'com.typemytype.robofont.layerData'
p4
(dp5
s."
AnchorPoint: "top" 215 501 mark 0
LayerCount: 2
Fore
SplineSet
312 598 m 256
 346 598 362 621 362 649 c 256
 362 676 346 699 312 699 c 256
 277 699 262 676 262 649 c 256
 262 621 278 598 312 598 c 256
111 598 m 256
 145 598 159 621 159 649 c 256
 159 676 145 699 111 699 c 256
 76 699 61 676 61 649 c 256
 61 621 77 598 111 598 c 256
EndSplineSet
EndChar

StartChar: divide
Encoding: 247 247 188
Width: 515
VWidth: 0
GlyphClass: 2
Flags: W
PickledData: "(dp1
S'org.pippin.gimp.org.kernagic'
p2
(dp3
S'lstem'
p4
I0
sS'rstem'
p5
I0
ssS'com.typemytype.robofont.layerData'
p6
(dp7
sS'org.robofab.postScriptHintData'
p8
(dp9
s."
LayerCount: 2
Fore
SplineSet
225 511 m 257
 225 414 l 257
 319 414 l 257
 319 511 l 257
 225 511 l 257
225 114 m 257
 225 15 l 257
 318 15 l 257
 318 114 l 257
 225 114 l 257
47 301 m 257
 47 234 l 257
 495 234 l 257
 495 301 l 257
 47 301 l 257
EndSplineSet
EndChar

StartChar: dollar
Encoding: 36 36 189
Width: 536
VWidth: 0
GlyphClass: 2
Flags: W
PickledData: "(dp1
S'org.pippin.gimp.org.kernagic'
p2
(dp3
S'lstem'
p4
I0
sS'rstem'
p5
I0
ssS'com.typemytype.robofont.layerData'
p6
(dp7
S'b'
(dp8
S'name'
p9
S'dollar'
p10
sS'lib'
p11
(dp12
sS'unicodes'
p13
(tsS'width'
p14
I1221
sS'contours'
p15
(tsS'components'
p16
(tsS'anchors'
p17
(tsssS'org.robofab.postScriptHintData'
p18
(dp19
s."
LayerCount: 2
Fore
SplineSet
253 20 m 257
 253 -137 l 257
 309 -137 l 257
 317 20 l 257
 253 20 l 257
262 819 m 257
 253 662 l 257
 320 662 l 257
 320 819 l 257
 262 819 l 257
EndSplineSet
Refer: 92 83 N 1 0 0 1 0 0 2
EndChar

StartChar: dotaccent
Encoding: 729 729 190
Width: 198
VWidth: 0
GlyphClass: 4
Flags: W
PickledData: "(dp1
S'org.robofab.postScriptHintData'
p2
(dp3
sS'com.typemytype.robofont.layerData'
p4
(dp5
s."
AnchorPoint: "top" 104 501 mark 0
LayerCount: 2
Fore
SplineSet
167 664 m 256
 167 700 143 722 104 722 c 256
 65 722 43 700 43 664 c 256
 43 627 65 604 104 604 c 256
 143 604 167 627 167 664 c 256
EndSplineSet
EndChar

StartChar: dotlessi
Encoding: 305 305 191
Width: 231
VWidth: 0
GlyphClass: 2
Flags: W
PickledData: "(dp1
S'org.pippin.gimp.org.kernagic'
p2
(dp3
S'lstem'
p4
I0
sS'rstem'
p5
I0
ssS'com.typemytype.robofont.layerData'
p6
(dp7
sS'org.robofab.postScriptHintData'
p8
(dp9
s."
AnchorPoint: "top" 130 501 basechar 0
LayerCount: 2
Fore
SplineSet
84 501 m 257
 84 0 l 257
 169 0 l 257
 169 501 l 257
 84 501 l 257
EndSplineSet
EndChar

StartChar: uni0237
Encoding: 567 567 192
Width: 261
VWidth: 0
GlyphClass: 2
Flags: W
PickledData: "(dp1
S'org.pippin.gimp.org.kernagic'
p2
(dp3
S'lstem'
p4
I0
sS'rstem'
p5
I0
ssS'com.typemytype.robofont.layerData'
p6
(dp7
sS'com.fontlab.hintData'
p8
(dp9
S'vhints'
p10
((dp11
S'position'
p12
I52
sS'width'
p13
I65
stp14
sS'hhints'
p15
((dp16
g12
I-223
sg13
I53
stp17
ssS'org.robofab.postScriptHintData'
p18
(dp19
s."
HStem: -223 53
VStem: 52 65
AnchorPoint: "top" 156 501 basechar 0
LayerCount: 2
Fore
SplineSet
112 501 m 257
 112 8 l 258
 112 -79 111 -94 40 -110 c 258
 9 -118 l 257
 23 -184 l 257
 53 -178 l 257
 156 -162 196 -126 196 -5 c 258
 196 501 l 257
 112 501 l 257
EndSplineSet
EndChar

StartChar: e
Encoding: 101 101 193
Width: 502
VWidth: 0
GlyphClass: 2
Flags: W
PickledData: "(dp1
S'org.pippin.gimp.org.kernagic'
p2
(dp3
S'lstem'
p4
I0
sS'rstem'
p5
I747
ssS'com.typemytype.robofont.layerData'
p6
(dp7
sS'com.fontlab.hintData'
p8
(dp9
S'hhints'
p10
((dp11
S'position'
p12
I-8
sS'width'
p13
I43
s(dp14
g12
I455
sg13
I42
stp15
ssS'org.robofab.postScriptHintData'
p16
(dp17
s."
HStem: -8 43 455 42
AnchorPoint: "top" 289 501 basechar 0
AnchorPoint: "bot" 292 0 basechar 0
LayerCount: 2
Fore
SplineSet
144 290 m 257
 152 389 209 451 289 451 c 256
 369 451 409 390 410 290 c 257
 144 290 l 257
477 236 m 257
 477 237 481 273 481 288 c 256
 481 426 408 513 286 513 c 256
 159 513 56 417 56 250 c 256
 56 90 161 -9 297 -9 c 256
 368 -9 427 12 468 40 c 257
 449 96 l 257
 441 96 l 257
 400 73 365 53 307 53 c 256
 216 53 148 107 141 236 c 257
 477 236 l 257
EndSplineSet
EndChar

StartChar: eight
Encoding: 56 56 201
Width: 553
VWidth: 0
GlyphClass: 2
Flags: W
PickledData: "(dp1
S'org.pippin.gimp.org.kernagic'
p2
(dp3
S'lstem'
p4
I0
sS'rstem'
p5
I0
ssS'com.typemytype.robofont.layerData'
p6
(dp7
sS'org.robofab.postScriptHintData'
p8
(dp9
s."
LayerCount: 2
Fore
SplineSet
292 380 m 257
 210 400 167 445 167 517 c 256
 167 582 217 623 292 623 c 256
 368 623 417 582 417 517 c 256
 417 445 375 400 292 380 c 257
292 56 m 256
 200 56 151 97 151 176 c 256
 151 257 212 304 292 323 c 257
 372 304 433 256 433 177 c 256
 433 96 387 56 292 56 c 256
292 -9 m 256
 415 -9 514 50 514 170 c 256
 514 259 459 329 377 356 c 257
 450 383 499 434 499 517 c 256
 499 626 412 685 292 685 c 256
 172 685 83 626 83 517 c 256
 83 434 137 378 209 355 c 257
 121 324 71 265 71 170 c 256
 71 50 170 -9 292 -9 c 256
EndSplineSet
EndChar

StartChar: emdash
Encoding: 8212 8212 204
Width: 935
VWidth: 0
GlyphClass: 2
Flags: W
PickledData: "(dp1
S'org.robofab.postScriptHintData'
p2
(dp3
sS'com.typemytype.robofont.layerData'
p4
(dp5
s."
LayerCount: 2
Fore
SplineSet
27 239 m 257
 959 239 l 257
 959 305 l 257
 27 305 l 257
 27 239 l 257
EndSplineSet
EndChar

StartChar: endash
Encoding: 8211 8211 205
Width: 579
VWidth: 0
GlyphClass: 2
Flags: W
PickledData: "(dp1
S'org.pippin.gimp.org.kernagic'
p2
(dp3
S'lstem'
p4
I0
sS'rstem'
p5
I0
ssS'com.typemytype.robofont.layerData'
p6
(dp7
sS'org.robofab.postScriptHintData'
p8
(dp9
s."
LayerCount: 2
Fore
SplineSet
34 243 m 257
 578 243 l 257
 578 303 l 257
 34 303 l 257
 34 243 l 257
EndSplineSet
EndChar

StartChar: eng
Encoding: 331 331 206
Width: 525
VWidth: 0
GlyphClass: 2
Flags: W
PickledData: "(dp1
S'org.robofab.postScriptHintData'
p2
(dp3
sS'com.typemytype.robofont.layerData'
p4
(dp5
s."
LayerCount: 2
Fore
SplineSet
405 59 m 257
 405 -4 l 258
 405 -103 388 -136 216 -136 c 257
 217 -202 l 257
 423 -202 490 -159 490 -6 c 258
 490 59 l 257
 405 59 l 257
EndSplineSet
Refer: 274 110 N 1 0 0 1 0 0 2
EndChar

StartChar: equal
Encoding: 61 61 208
Width: 469
VWidth: 0
GlyphClass: 2
Flags: W
PickledData: "(dp1
S'org.pippin.gimp.org.kernagic'
p2
(dp3
S'lstem'
p4
I0
sS'rstem'
p5
I0
ssS'com.typemytype.robofont.layerData'
p6
(dp7
S'b'
(dp8
S'name'
p9
S'equal'
p10
sS'lib'
p11
(dp12
sS'unicodes'
p13
(tsS'width'
p14
I1050
sS'contours'
p15
(tsS'components'
p16
(tsS'anchors'
p17
(tsssS'org.robofab.postScriptHintData'
p18
(dp19
s."
LayerCount: 2
Fore
SplineSet
59 264 m 257
 59 193 l 257
 440 193 l 257
 440 264 l 257
 59 264 l 257
59 443 m 257
 59 374 l 257
 440 374 l 257
 440 443 l 257
 59 443 l 257
EndSplineSet
EndChar

StartChar: estimated
Encoding: 8494 8494 209
Width: 534
VWidth: 0
GlyphClass: 2
Flags: W
PickledData: "(dp1
S'org.robofab.postScriptHintData'
p2
(dp3
sS'com.typemytype.robofont.layerData'
p4
(dp5
S'b'
(dp6
S'name'
p7
S'estimated'
p8
sS'lib'
p9
(dp10
sS'unicodes'
p11
(tsS'width'
p12
I1223
sS'contours'
p13
(tsS'components'
p14
(tsS'anchors'
p15
(tsss."
LayerCount: 2
Fore
SplineSet
465 279 m 257
 151 279 l 257
 157 399 226 481 306 481 c 256
 403 481 465 388 465 279 c 257
47 251 m 256
 47 103 134 -9 311 -9 c 256
 407 -9 471 33 516 88 c 257
 492 111 l 257
 447 62 394 24 311 24 c 256
 204 24 150 113 150 242 c 257
 519 242 l 257
 519 402 451 510 303 510 c 256
 154 510 47 399 47 251 c 256
EndSplineSet
EndChar

StartChar: eth
Encoding: 240 240 210
Width: 533
VWidth: 0
GlyphClass: 2
Flags: W
PickledData: "(dp1
S'org.pippin.gimp.org.kernagic'
p2
(dp3
S'lstem'
p4
I0
sS'rstem'
p5
I0
ssS'com.typemytype.robofont.layerData'
p6
(dp7
sS'org.robofab.postScriptHintData'
p8
(dp9
s."
LayerCount: 2
Fore
SplineSet
436 230 m 256
 436 123 383 54 281 54 c 256
 177 54 125 137 125 226 c 256
 125 321 181 393 278 393 c 256
 379 393 436 313 436 230 c 256
103 733 m 257
 203 636 l 257
 101 596 l 257
 125 543 l 257
 243 589 l 257
 321 511 368 449 391 406 c 257
 365 426 333 452 270 452 c 256
 140 452 46 362 46 227 c 256
 46 101 128 -9 278 -9 c 256
 432 -9 509 91 509 227 c 256
 509 290 493 356 470 403 c 256
 438 463 390 523 306 616 c 257
 421 661 l 257
 398 714 l 257
 265 662 l 257
 195 733 l 257
 103 733 l 257
EndSplineSet
EndChar

StartChar: exclam
Encoding: 33 33 211
Width: 314
VWidth: 0
GlyphClass: 2
Flags: W
PickledData: "(dp1
S'org.pippin.gimp.org.kernagic'
p2
(dp3
S'lstem'
p4
I0
sS'rstem'
p5
I0
ssS'com.typemytype.robofont.layerData'
p6
(dp7
sS'org.robofab.postScriptHintData'
p8
(dp9
s."
LayerCount: 2
Fore
SplineSet
161 -5 m 256
 199 -5 216 22 216 52 c 256
 216 79 199 108 161 108 c 256
 123 108 107 79 107 52 c 256
 107 24 123 -5 161 -5 c 256
145 201 m 257
 178 201 l 257
 203 619 l 257
 203 680 l 257
 118 680 l 257
 118 619 l 257
 145 201 l 257
EndSplineSet
EndChar

StartChar: f
Encoding: 102 102 213
Width: 333
VWidth: 0
GlyphClass: 2
Flags: W
PickledData: "(dp1
S'org.pippin.gimp.org.kernagic'
p2
(dp3
S'lstem'
p4
I182
sS'rstem'
p5
I417
ssS'com.typemytype.robofont.layerData'
p6
(dp7
sS'com.fontlab.hintData'
p8
(dp9
S'vhints'
p10
((dp11
S'position'
p12
I125
sS'width'
p13
I77
stp14
sS'hhints'
p15
((dp16
g12
I441
sg13
I41
s(dp17
g12
I630
sg13
I57
stp18
ssS'org.robofab.postScriptHintData'
p19
(dp20
s."
HStem: 441 41 630 57
VStem: 125 77
AnchorPoint: "top" 180 676 basechar 0
LayerCount: 2
Fore
SplineSet
204 501 m 257
 204 538 l 258
 204 621 220 642 285 642 c 256
 301 642 331 639 334 639 c 257
 339 696 l 258
 338 696 307 704 269 704 c 258
 262 704 l 258
 171 704 118 675 118 538 c 258
 118 500 l 257
 34 494 l 257
 32 451 l 257
 118 451 l 257
 118 0 l 257
 204 0 l 257
 204 451 l 257
 330 451 l 257
 330 501 l 257
 204 501 l 257
EndSplineSet
EndChar

StartChar: five
Encoding: 53 53 214
Width: 553
VWidth: 0
GlyphClass: 2
Flags: W
PickledData: "(dp1
S'org.pippin.gimp.org.kernagic'
p2
(dp3
S'lstem'
p4
I0
sS'rstem'
p5
I0
ssS'com.typemytype.robofont.layerData'
p6
(dp7
sS'org.robofab.postScriptHintData'
p8
(dp9
s."
LayerCount: 2
Fore
SplineSet
308 370 m 256
 391 370 437 295 437 218 c 256
 437 139 389 62 289 62 c 256
 220 62 176 87 139 138 c 257
 133 138 l 257
 83 91 l 257
 111 45 186 -9 290 -9 c 256
 449 -9 528 104 528 218 c 256
 528 327 458 435 322 435 c 256
 269 435 230 417 197 387 c 257
 220 608 l 257
 476 608 l 257
 486 676 l 257
 139 676 l 257
 118 323 l 257
 187 312 l 257
 215 350 259 370 308 370 c 256
EndSplineSet
EndChar

StartChar: florin
Encoding: 402 402 216
Width: 453
VWidth: 0
GlyphClass: 2
Flags: W
PickledData: "(dp1
S'org.robofab.postScriptHintData'
p2
(dp3
s."
LayerCount: 2
Fore
SplineSet
256 576 m 258
 242 499 l 257
 165 499 l 257
 156 460 l 257
 235 460 l 257
 139 56 l 258
 122 -19 131 -82 52 -82 c 256
 39 -82 24 -81 7 -78 c 257
 -2 -118 l 257
 14 -122 30 -126 45 -126 c 256
 124 -126 193 -62 220 56 c 258
 315 460 l 257
 418 460 l 257
 425 499 l 257
 323 499 l 257
 339 585 l 258
 349 634 361 678 405 678 c 258
 406 678 l 258
 433 678 447 653 448 604 c 257
 510 604 l 257
 510 694 462 720 403 720 c 256
 315 720 272 657 256 576 c 258
EndSplineSet
EndChar

StartChar: foundryicon
Encoding: 65538 -1 217
Width: 591
VWidth: 0
GlyphClass: 2
Flags: W
PickledData: "(dp1
S'org.robofab.postScriptHintData'
p2
(dp3
s."
LayerCount: 2
Fore
SplineSet
130 1 m 257
 310 129 l 257
 495 1 l 257
 427 213 l 257
 609 350 l 257
 384 350 l 257
 310 564 l 257
 241 350 l 257
 16 350 l 257
 196 213 l 257
 130 1 l 257
225 188 m 257
 225 311 l 257
 274 311 l 257
 354 243 l 257
 354 311 l 257
 402 311 l 257
 402 188 l 257
 354 188 l 257
 274 256 l 257
 274 188 l 257
 225 188 l 257
EndSplineSet
EndChar

StartChar: four
Encoding: 52 52 218
Width: 553
VWidth: 0
GlyphClass: 2
Flags: W
PickledData: "(dp1
S'org.pippin.gimp.org.kernagic'
p2
(dp3
S'lstem'
p4
I0
sS'rstem'
p5
I0
ssS'com.typemytype.robofont.layerData'
p6
(dp7
sS'org.robofab.postScriptHintData'
p8
(dp9
s."
LayerCount: 2
Fore
SplineSet
147 240 m 257
 360 573 l 257
 360 240 l 257
 147 240 l 257
360 0 m 257
 445 0 l 257
 445 173 l 257
 519 173 l 257
 526 241 l 257
 445 241 l 257
 445 676 l 257
 354 676 l 257
 61 241 l 257
 83 173 l 257
 360 173 l 257
 360 0 l 257
EndSplineSet
EndChar

StartChar: fraction
Encoding: 8260 8260 219
Width: 458
VWidth: 0
GlyphClass: 2
Flags: W
PickledData: "(dp1
S'org.robofab.postScriptHintData'
p2
(dp3
s."
LayerCount: 2
Fore
SplineSet
59 0 m 257
 129 0 l 257
 432 680 l 257
 360 680 l 257
 59 0 l 257
EndSplineSet
EndChar

StartChar: g
Encoding: 103 103 220
Width: 529
VWidth: 0
GlyphClass: 2
Flags: W
PickledData: "(dp1
S'org.pippin.gimp.org.kernagic'
p2
(dp3
S'lstem'
p4
I0
sS'rstem'
p5
I0
ssS'com.typemytype.robofont.layerData'
p6
(dp7
sS'com.fontlab.hintData'
p8
(dp9
S'vhints'
p10
((dp11
S'position'
p12
I59
sS'width'
p13
I57
s(dp14
g12
I453
sg13
I58
s(dp15
g12
I453
sg13
I17
stp16
sS'hhints'
p17
((dp18
g12
I-197
sg13
I46
s(dp19
g12
I0
sg13
I42
s(dp20
g12
I455
sg13
I42
stp21
ssS'org.robofab.postScriptHintData'
p22
(dp23
s."
HStem: -197 46 0 42 455 42
VStem: 59 57 453 58 453 17
AnchorPoint: "top" 280 501 basechar 0
LayerCount: 2
Fore
SplineSet
278 53 m 256
 183 53 138 127 138 253 c 256
 138 375 186 451 277 451 c 256
 331 451 372 429 403 387 c 257
 403 108 l 257
 377 72 331 53 278 53 c 256
270 -8 m 256
 314 -8 367 2 405 42 c 257
 405 4 l 257
 405 2 l 258
 405 -121 353 -159 259 -159 c 256
 217 -159 164 -150 125 -134 c 257
 114 -134 l 257
 107 -199 l 257
 147 -214 203 -226 260 -226 c 256
 424 -226 486 -145 486 23 c 258
 486 501 l 257
 414 501 l 257
 410 452 l 257
 382 487 334 513 271 513 c 256
 137 513 53 411 53 253 c 256
 53 92 133 -8 270 -8 c 256
EndSplineSet
EndChar

StartChar: germandbls
Encoding: 223 223 226
Width: 563
VWidth: 0
GlyphClass: 2
Flags: W
PickledData: "(dp1
S'org.pippin.gimp.org.kernagic'
p2
(dp3
S'lstem'
p4
I0
sS'rstem'
p5
I0
ssS'com.typemytype.robofont.layerData'
p6
(dp7
S'b'
(dp8
S'name'
p9
S'germandbls'
p10
sS'lib'
p11
(dp12
sS'unicodes'
p13
(tsS'width'
p14
I1278
sS'contours'
p15
(tsS'components'
p16
(tsS'anchors'
p17
(tsssS'org.robofab.postScriptHintData'
p18
(dp19
s."
LayerCount: 2
Fore
SplineSet
395 -9 m 256
 491 -9 547 46 547 137 c 256
 547 275 366 326 366 379 c 256
 366 420 463 472 463 572 c 256
 463 663 394 720 288 720 c 256
 150 720 77 637 77 500 c 258
 77 0 l 257
 160 0 l 257
 160 500 l 258
 160 610 206 653 290 653 c 256
 351 653 384 622 384 572 c 256
 384 477 290 451 290 373 c 256
 290 281 463 236 463 137 c 256
 463 95 440 58 383 58 c 256
 333 58 282 75 258 89 c 257
 236 26 l 257
 274 7 338 -9 395 -9 c 256
EndSplineSet
EndChar

StartChar: grave
Encoding: 96 96 227
Width: 407
VWidth: 0
GlyphClass: 4
Flags: W
PickledData: "(dp1
S'org.robofab.postScriptHintData'
p2
(dp3
sS'com.typemytype.robofont.layerData'
p4
(dp5
s."
AnchorPoint: "top" 220 495 mark 0
LayerCount: 2
Fore
SplineSet
188 560 m 257
 243 560 l 257
 153 736 l 257
 44 736 l 257
 188 560 l 257
EndSplineSet
EndChar

StartChar: greater
Encoding: 62 62 228
Width: 486
VWidth: 0
GlyphClass: 2
Flags: W
PickledData: "(dp1
S'org.pippin.gimp.org.kernagic'
p2
(dp3
S'lstem'
p4
I0
sS'rstem'
p5
I0
ssS'com.typemytype.robofont.layerData'
p6
(dp7
S'b'
(dp8
S'name'
p9
S'greater'
p10
sS'lib'
p11
(dp12
sS'unicodes'
p13
(tsS'width'
p14
I1107
sS'contours'
p15
(tsS'components'
p16
(tsS'anchors'
p17
(tsssS'org.robofab.postScriptHintData'
p18
(dp19
s."
LayerCount: 2
Fore
SplineSet
43 479 m 257
 379 300 l 257
 42 138 l 257
 42 68 l 257
 475 277 l 257
 475 319 l 257
 43 550 l 257
 43 479 l 257
EndSplineSet
EndChar

StartChar: greaterequal
Encoding: 8805 8805 229
Width: 523
VWidth: 0
GlyphClass: 2
Flags: W
PickledData: "(dp1
S'org.pippin.gimp.org.kernagic'
p2
(dp3
S'lstem'
p4
I0
sS'rstem'
p5
I0
ssS'com.typemytype.robofont.layerData'
p6
(dp7
S'b'
(dp8
S'name'
p9
S'greaterequal'
p10
sS'lib'
p11
(dp12
sS'unicodes'
p13
(tsS'width'
p14
I1192
sS'contours'
p15
(tsS'components'
p16
(tsS'anchors'
p17
(tsssS'org.robofab.postScriptHintData'
p18
(dp19
s."
LayerCount: 2
Fore
SplineSet
60 4 m 257
 493 4 l 257
 493 63 l 257
 60 63 l 257
 60 4 l 257
73 109 m 257
 484 331 l 257
 484 372 l 257
 74 607 l 257
 74 538 l 257
 401 351 l 257
 73 176 l 257
 73 109 l 257
EndSplineSet
EndChar

StartChar: guillemotleft
Encoding: 171 171 230
Width: 438
VWidth: 0
GlyphClass: 2
Flags: W
PickledData: "(dp1
S'org.pippin.gimp.org.kernagic'
p2
(dp3
S'lstem'
p4
I0
sS'rstem'
p5
I0
ssS'com.typemytype.robofont.layerData'
p6
(dp7
S'b'
(dp8
S'name'
p9
S'guillemotleft'
p10
sS'lib'
p11
(dp12
sS'unicodes'
p13
(tsS'width'
p14
I994
sS'contours'
p15
(tsS'components'
p16
(tsS'anchors'
p17
(tsssS'org.robofab.postScriptHintData'
p18
(dp19
s."
LayerCount: 2
Fore
SplineSet
338 68 m 257
 413 68 l 257
 285 258 l 257
 415 444 l 257
 339 444 l 257
 205 255 l 257
 338 68 l 257
171 68 m 257
 245 68 l 257
 118 258 l 257
 249 444 l 257
 173 444 l 257
 38 255 l 257
 171 68 l 257
EndSplineSet
EndChar

StartChar: guillemotright
Encoding: 187 187 231
Width: 438
VWidth: 0
GlyphClass: 2
Flags: W
PickledData: "(dp1
S'org.pippin.gimp.org.kernagic'
p2
(dp3
S'lstem'
p4
I0
sS'rstem'
p5
I0
ssS'com.typemytype.robofont.layerData'
p6
(dp7
sS'org.robofab.postScriptHintData'
p8
(dp9
s."
LayerCount: 2
Fore
SplineSet
282 68 m 257
 416 256 l 257
 281 444 l 257
 205 444 l 257
 336 258 l 257
 208 68 l 257
 282 68 l 257
116 68 m 257
 249 256 l 257
 115 444 l 257
 40 444 l 257
 169 258 l 257
 42 68 l 257
 116 68 l 257
EndSplineSet
EndChar

StartChar: guilsinglleft
Encoding: 8249 8249 232
Width: 276
VWidth: 0
GlyphClass: 2
Flags: W
PickledData: "(dp1
S'org.robofab.postScriptHintData'
p2
(dp3
s."
LayerCount: 2
Fore
SplineSet
176 70 m 257
 251 70 l 257
 123 258 l 257
 254 445 l 257
 178 445 l 257
 44 256 l 257
 176 70 l 257
EndSplineSet
EndChar

StartChar: guilsinglright
Encoding: 8250 8250 233
Width: 336
VWidth: 0
GlyphClass: 2
Flags: W
PickledData: "(dp1
S'org.pippin.gimp.org.kernagic'
p2
(dp3
S'lstem'
p4
I0
sS'rstem'
p5
I0
ssS'com.typemytype.robofont.layerData'
p6
(dp7
S'b'
(dp8
S'name'
p9
S'guilsinglright'
p10
sS'lib'
p11
(dp12
sS'unicodes'
p13
(tsS'width'
p14
I766
sS'contours'
p15
(tsS'components'
p16
(tsS'anchors'
p17
(tsssS'org.robofab.postScriptHintData'
p18
(dp19
s."
LayerCount: 2
Fore
SplineSet
72 70 m 257
 148 70 l 257
 282 265 l 257
 146 463 l 257
 70 463 l 257
 201 265 l 257
 72 70 l 257
EndSplineSet
EndChar

StartChar: h
Encoding: 104 104 234
Width: 533
VWidth: 0
GlyphClass: 2
Flags: W
PickledData: "(dp1
S'org.pippin.gimp.org.kernagic'
p2
(dp3
S'lstem'
p4
I0
sS'rstem'
p5
I0
ssS'com.typemytype.robofont.layerData'
p6
(dp7
sS'com.fontlab.hintData'
p8
(dp9
S'vhints'
p10
((dp11
S'position'
p12
I90
sS'width'
p13
I57
s(dp14
g12
I422
sg13
I57
stp15
sS'hhints'
p16
((dp17
g12
I455
sg13
I42
stp18
ssS'org.robofab.postScriptHintData'
p19
(dp20
s."
HStem: 455 42
VStem: 90 57 422 57
AnchorPoint: "top" 308 648 basechar 0
LayerCount: 2
Fore
SplineSet
78 0 m 257
 161 0 l 257
 161 277 l 258
 161 365 197 451 308 451 c 256
 380 451 406 403 406 307 c 258
 406 0 l 257
 492 0 l 257
 492 310 l 258
 492 439 434 513 325 513 c 256
 254 513 192 487 158 408 c 257
 161 532 l 257
 161 724 l 257
 78 715 l 257
 78 0 l 257
EndSplineSet
EndChar

StartChar: hungarumlaut
Encoding: 733 733 237
Width: 356
VWidth: 0
GlyphClass: 4
Flags: W
PickledData: "(dp1
S'org.robofab.postScriptHintData'
p2
(dp3
sS'com.typemytype.robofont.layerData'
p4
(dp5
s."
AnchorPoint: "top" 160 495 mark 0
LayerCount: 2
Fore
SplineSet
202 578 m 257
 251 578 l 257
 357 741 l 257
 270 741 l 257
 202 578 l 257
73 578 m 257
 125 578 l 257
 211 741 l 257
 134 741 l 257
 73 578 l 257
EndSplineSet
EndChar

StartChar: hyphen
Encoding: 45 45 238
Width: 378
VWidth: 0
GlyphClass: 4
Flags: W
PickledData: "(dp1
S'org.pippin.gimp.org.kernagic'
p2
(dp3
S'lstem'
p4
I0
sS'rstem'
p5
I0
ssS'com.typemytype.robofont.layerData'
p6
(dp7
sS'org.robofab.postScriptHintData'
p8
(dp9
s."
LayerCount: 2
Fore
SplineSet
80 243 m 257
 317 243 l 257
 317 308 l 257
 80 308 l 257
 80 243 l 257
EndSplineSet
EndChar

StartChar: i
Encoding: 105 105 239
Width: 261
VWidth: 0
GlyphClass: 2
Flags: W
PickledData: "(dp1
S'org.robofab.postScriptHintData'
p2
(dp3
sS'com.typemytype.robofont.layerData'
p4
(dp5
s."
LayerCount: 2
Fore
SplineSet
206 664 m 256
 206 700 184 722 145 722 c 256
 106 722 83 700 83 664 c 256
 83 627 106 604 145 604 c 256
 184 604 206 627 206 664 c 256
101 501 m 257
 101 0 l 257
 186 0 l 257
 186 501 l 257
 101 501 l 257
EndSplineSet
EndChar

StartChar: infinity
Encoding: 8734 8734 250
Width: 729
VWidth: 0
GlyphClass: 2
Flags: W
PickledData: "(dp1
S'org.pippin.gimp.org.kernagic'
p2
(dp3
S'lstem'
p4
I0
sS'rstem'
p5
I0
ssS'com.typemytype.robofont.layerData'
p6
(dp7
S'b'
(dp8
S'name'
p9
S'infinity'
p10
sS'lib'
p11
(dp12
sS'unicodes'
p13
(tsS'width'
p14
I1647
sS'contours'
p15
(tsS'components'
p16
(tsS'anchors'
p17
(tsssS'org.robofab.postScriptHintData'
p18
(dp19
s."
LayerCount: 2
Fore
SplineSet
674 306 m 256
 674 234 643 177 573 177 c 256
 517 177 476 217 421 293 c 257
 461 353 510 410 571 410 c 256
 632 410 674 362 674 306 c 256
348 292 m 257
 306 230 254 177 196 177 c 256
 131 177 88 234 88 293 c 256
 88 355 129 410 194 410 c 256
 256 410 306 358 348 292 c 257
384 343 m 257
 328 419 272 470 194 470 c 256
 104 470 34 396 34 303 c 256
 34 202 93 115 195 115 c 256
 271 115 330 168 384 242 c 257
 445 158 503 115 572 115 c 256
 663 115 734 189 734 296 c 256
 734 397 675 470 573 470 c 256
 494 470 437 417 384 343 c 257
EndSplineSet
EndChar

StartChar: integral
Encoding: 8747 8747 251
Width: 426
VWidth: 0
GlyphClass: 2
Flags: W
PickledData: "(dp1
S'org.pippin.gimp.org.kernagic'
p2
(dp3
S'lstem'
p4
I0
sS'rstem'
p5
I0
ssS'com.typemytype.robofont.layerData'
p6
(dp7
S'b'
(dp8
S'name'
p9
S'integral'
p10
sS'lib'
p11
(dp12
sS'unicodes'
p13
(tsS'width'
p14
I994
sS'contours'
p15
(tsS'components'
p16
(tsS'anchors'
p17
(tsssS'org.robofab.postScriptHintData'
p18
(dp19
s."
LayerCount: 2
Fore
SplineSet
236 536 m 258
 236 -19 l 258
 236 -96 225 -144 165 -144 c 256
 152 -144 136 -141 119 -137 c 257
 119 -188 l 257
 139 -192 158 -194 174 -194 c 256
 261 -194 298 -131 298 -15 c 258
 298 540 l 258
 298 614 309 661 363 661 c 256
 376 661 389 656 405 652 c 257
 405 701 l 257
 383 705 364 708 348 708 c 256
 267 708 236 650 236 536 c 258
EndSplineSet
EndChar

StartChar: j
Encoding: 106 106 254
Width: 257
VWidth: 0
GlyphClass: 2
Flags: W
PickledData: "(dp1
S'org.robofab.postScriptHintData'
p2
(dp3
sS'com.typemytype.robofont.layerData'
p4
(dp5
s."
LayerCount: 2
Fore
SplineSet
209 664 m 256
 209 700 187 722 148 722 c 256
 109 722 87 700 87 664 c 256
 87 627 109 604 148 604 c 256
 187 604 209 627 209 664 c 256
111 501 m 257
 111 8 l 258
 111 -79 110 -94 39 -110 c 258
 8 -118 l 257
 22 -184 l 257
 52 -178 l 257
 155 -162 195 -126 195 -5 c 258
 195 501 l 257
 111 501 l 257
EndSplineSet
EndChar

StartChar: k
Encoding: 107 107 256
Width: 482
VWidth: 0
GlyphClass: 2
Flags: W
PickledData: "(dp1
S'org.pippin.gimp.org.kernagic'
p2
(dp3
S'lstem'
p4
I0
sS'rstem'
p5
I671
ssS'com.typemytype.robofont.layerData'
p6
(dp7
sS'org.robofab.postScriptHintData'
p8
(dp9
s."
AnchorPoint: "bot" 277 0 basechar 0
LayerCount: 2
Fore
SplineSet
78 0 m 257
 161 0 l 257
 161 186 l 257
 217 233 l 257
 408 0 l 257
 498 0 l 257
 498 12 l 257
 278 274 l 257
 483 491 l 257
 483 501 l 257
 388 501 l 257
 158 256 l 257
 161 356 l 257
 161 724 l 257
 78 715 l 257
 78 0 l 257
EndSplineSet
EndChar

StartChar: kgreenlandic
Encoding: 312 312 258
Width: 477
VWidth: 0
GlyphClass: 2
Flags: W
PickledData: "(dp1
S'org.robofab.postScriptHintData'
p2
(dp3
s."
LayerCount: 2
Fore
SplineSet
71 0 m 257
 151 0 l 257
 151 183 l 257
 209 232 l 257
 399 0 l 257
 489 0 l 257
 489 11 l 257
 266 273 l 257
 473 491 l 257
 473 501 l 257
 380 501 l 257
 148 252 l 257
 151 356 l 257
 151 501 l 257
 71 501 l 257
 71 0 l 257
EndSplineSet
EndChar

StartChar: l
Encoding: 108 108 259
Width: 281
VWidth: 0
GlyphClass: 2
Flags: W
PickledData: "(dp1
S'org.pippin.gimp.org.kernagic'
p2
(dp3
S'lstem'
p4
I0
sS'rstem'
p5
I238
ssS'com.typemytype.robofont.layerData'
p6
(dp7
sS'com.fontlab.hintData'
p8
(dp9
S'vhints'
p10
((dp11
S'position'
p12
I90
sS'width'
p13
I57
stp14
sS'hhints'
p15
((dp16
g12
I-4
sg13
I40
stp17
ssS'org.robofab.postScriptHintData'
p18
(dp19
s."
HStem: -4 40
VStem: 90 57
AnchorPoint: "top" 164 697 basechar 0
LayerCount: 2
Fore
SplineSet
222 -4 m 257
 254 -4 l 257
 262 58 l 257
 232 59 l 257
 176 63 167 70 167 145 c 258
 167 724 l 257
 82 715 l 257
 82 144 l 258
 82 22 130 -4 220 -4 c 258
 222 -4 l 257
EndSplineSet
EndChar

StartChar: less
Encoding: 60 60 264
Width: 486
VWidth: 0
GlyphClass: 2
Flags: W
PickledData: "(dp1
S'org.pippin.gimp.org.kernagic'
p2
(dp3
S'lstem'
p4
I0
sS'rstem'
p5
I0
ssS'com.typemytype.robofont.layerData'
p6
(dp7
S'b'
(dp8
S'name'
p9
S'less'
p10
sS'lib'
p11
(dp12
sS'unicodes'
p13
(tsS'width'
p14
I1107
sS'contours'
p15
(tsS'components'
p16
(tsS'anchors'
p17
(tsssS'org.robofab.postScriptHintData'
p18
(dp19
s."
LayerCount: 2
Fore
SplineSet
469 64 m 257
 469 137 l 257
 129 300 l 257
 469 477 l 257
 469 547 l 257
 36 320 l 257
 36 278 l 257
 469 64 l 257
EndSplineSet
EndChar

StartChar: lessequal
Encoding: 8804 8804 265
Width: 523
VWidth: 0
GlyphClass: 2
Flags: W
PickledData: "(dp1
S'org.robofab.postScriptHintData'
p2
(dp3
sS'com.typemytype.robofont.layerData'
p4
(dp5
s."
LayerCount: 2
Fore
SplineSet
59 3 m 257
 492 3 l 257
 492 62 l 257
 59 63 l 257
 59 3 l 257
479 113 m 257
 479 180 l 257
 153 355 l 257
 478 538 l 257
 478 607 l 257
 68 374 l 257
 68 335 l 257
 479 113 l 257
EndSplineSet
EndChar

StartChar: logicalnot
Encoding: 172 172 266
Width: 546
VWidth: 0
GlyphClass: 2
Flags: W
PickledData: "(dp1
S'org.pippin.gimp.org.kernagic'
p2
(dp3
S'lstem'
p4
I0
sS'rstem'
p5
I0
ssS'com.typemytype.robofont.layerData'
p6
(dp7
sS'org.robofab.postScriptHintData'
p8
(dp9
s."
LayerCount: 2
Fore
SplineSet
49 376 m 257
 49 311 l 257
 434 311 l 257
 434 118 l 257
 494 118 l 257
 494 376 l 257
 49 376 l 257
EndSplineSet
EndChar

StartChar: lozenge
Encoding: 9674 9674 267
Width: 513
VWidth: 0
GlyphClass: 2
Flags: W
PickledData: "(dp1
S'org.pippin.gimp.org.kernagic'
p2
(dp3
S'lstem'
p4
I0
sS'rstem'
p5
I0
ssS'com.typemytype.robofont.layerData'
p6
(dp7
S'b'
(dp8
S'name'
p9
S'lozenge'
p10
sS'lib'
p11
(dp12
sS'unicodes'
p13
(tsS'width'
p14
I1164
sS'contours'
p15
(tsS'components'
p16
(tsS'anchors'
p17
(tsssS'org.robofab.postScriptHintData'
p18
(dp19
s."
LayerCount: 2
Fore
SplineSet
418 355 m 257
 410 339 279 79 271 62 c 257
 263 78 134 340 126 356 c 257
 134 372 266 629 274 645 c 257
 282 629 410 371 418 355 c 257
249 733 m 257
 56 355 l 257
 246 -22 l 257
 294 -22 l 257
 489 356 l 257
 298 733 l 257
 249 733 l 257
EndSplineSet
EndChar

StartChar: m
Encoding: 109 109 269
Width: 806
VWidth: 0
GlyphClass: 2
Flags: W
PickledData: "(dp1
S'org.pippin.gimp.org.kernagic'
p2
(dp3
S'lstem'
p4
I0
sS'rstem'
p5
I0
ssS'com.typemytype.robofont.layerData'
p6
(dp7
sS'com.fontlab.hintData'
p8
(dp9
S'vhints'
p10
((dp11
S'position'
p12
I90
sS'width'
p13
I57
s(dp14
g12
I90
sg13
I45
s(dp15
g12
I393
sg13
I57
s(dp16
g12
I688
sg13
I57
stp17
sS'hhints'
p18
((dp19
g12
I455
sg13
I42
stp20
ssS'org.robofab.postScriptHintData'
p21
(dp22
s."
HStem: 455 42
VStem: 90 57 90 45 393 57 688 57
AnchorPoint: "top" 444 501 basechar 0
LayerCount: 2
Fore
SplineSet
471 277 m 258
 471 388 542 451 604 451 c 256
 683 451 697 372 697 299 c 258
 697 0 l 257
 781 0 l 257
 781 323 l 258
 781 446 723 513 621 513 c 256
 549 513 489 475 455 395 c 257
 436 468 385 513 308 513 c 256
 243 513 188 480 156 403 c 257
 147 501 l 257
 76 501 l 257
 76 0 l 257
 160 0 l 257
 160 297 l 257
 172 386 215 451 291 451 c 256
 359 451 386 399 386 283 c 258
 386 0 l 257
 471 0 l 257
 471 277 l 258
EndSplineSet
EndChar

StartChar: macron
Encoding: 175 175 270
Width: 502
VWidth: 0
GlyphClass: 4
Flags: W
PickledData: "(dp1
S'org.robofab.postScriptHintData'
p2
(dp3
sS'com.typemytype.robofont.layerData'
p4
(dp5
s."
AnchorPoint: "top" 265 495 mark 0
LayerCount: 2
Fore
SplineSet
122 615 m 257
 395 615 l 257
 395 662 l 257
 122 662 l 257
 122 615 l 257
EndSplineSet
EndChar

StartChar: minus
Encoding: 8722 8722 272
Width: 513
VWidth: 0
GlyphClass: 2
Flags: W
PickledData: "(dp1
S'org.pippin.gimp.org.kernagic'
p2
(dp3
S'lstem'
p4
I0
sS'rstem'
p5
I0
ssS'com.typemytype.robofont.layerData'
p6
(dp7
sS'org.robofab.postScriptHintData'
p8
(dp9
s."
LayerCount: 2
Fore
SplineSet
49 308 m 257
 49 243 l 257
 496 243 l 257
 496 308 l 257
 49 308 l 257
EndSplineSet
EndChar

StartChar: multiply
Encoding: 215 215 273
Width: 436
VWidth: 0
GlyphClass: 2
Flags: W
PickledData: "(dp1
S'org.pippin.gimp.org.kernagic'
p2
(dp3
S'lstem'
p4
I0
sS'rstem'
p5
I0
ssS'com.typemytype.robofont.layerData'
p6
(dp7
sS'org.robofab.postScriptHintData'
p8
(dp9
s."
LayerCount: 2
Fore
SplineSet
53 446 m 257
 185 303 l 257
 49 156 l 257
 93 110 l 257
 229 255 l 257
 364 110 l 257
 406 157 l 257
 406 157 286 290 273 303 c 257
 405 444 l 257
 359 492 l 257
 229 350 l 257
 97 493 l 257
 53 446 l 257
EndSplineSet
EndChar

StartChar: n
Encoding: 110 110 274
Width: 530
VWidth: 0
GlyphClass: 2
Flags: W
PickledData: "(dp1
S'org.pippin.gimp.org.kernagic'
p2
(dp3
S'lstem'
p4
I0
sS'rstem'
p5
I0
ssS'com.typemytype.robofont.layerData'
p6
(dp7
sS'com.fontlab.hintData'
p8
(dp9
S'vhints'
p10
((dp11
S'position'
p12
I90
sS'width'
p13
I57
s(dp14
g12
I419
sg13
I57
stp15
sS'hhints'
p16
((dp17
g12
I0
sg13
I11
s(dp18
g12
I455
sg13
I42
s(dp19
g12
I479
sg13
I9
stp20
ssS'org.robofab.postScriptHintData'
p21
(dp22
s."
HStem: 0 11 455 42 479 9
VStem: 90 57 419 57
AnchorPoint: "top" 323 501 basechar 0
AnchorPoint: "bot" 281 0 basechar 0
LayerCount: 2
Fore
SplineSet
76 0 m 257
 160 0 l 257
 160 284 l 258
 160 375 204 451 307 451 c 256
 383 451 404 392 404 308 c 258
 404 0 l 257
 490 0 l 257
 490 302 l 258
 490 438 437 513 324 513 c 256
 243 513 186 477 155 403 c 257
 147 501 l 257
 76 501 l 257
 76 0 l 257
EndSplineSet
EndChar

StartChar: nine
Encoding: 57 57 279
Width: 553
VWidth: 0
GlyphClass: 2
Flags: W
PickledData: "(dp1
S'org.pippin.gimp.org.kernagic'
p2
(dp3
S'lstem'
p4
I0
sS'rstem'
p5
I0
ssS'com.typemytype.robofont.layerData'
p6
(dp7
sS'org.robofab.postScriptHintData'
p8
(dp9
s."
LayerCount: 2
Fore
SplineSet
449 472 m 256
 449 362 362 326 301 326 c 256
 210 326 165 390 165 471 c 256
 165 550 217 619 308 619 c 256
 399 619 449 551 449 472 c 256
164 0 m 257
 255 0 l 257
 424 217 l 258
 487 298 531 368 531 467 c 256
 531 582 449 685 307 685 c 256
 171 685 80 591 80 471 c 256
 80 345 169 262 279 262 c 256
 317 262 355 275 388 296 c 257
 315 199 239 106 164 11 c 257
 164 0 l 257
EndSplineSet
EndChar

StartChar: notequal
Encoding: 8800 8800 280
Width: 477
VWidth: 0
GlyphClass: 2
Flags: W
PickledData: "(dp1
S'org.pippin.gimp.org.kernagic'
p2
(dp3
S'lstem'
p4
I0
sS'rstem'
p5
I0
ssS'com.typemytype.robofont.layerData'
p6
(dp7
S'b'
(dp8
S'name'
p9
S'notequal'
p10
sS'lib'
p11
(dp12
sS'unicodes'
p13
(tsS'width'
p14
I1079
sS'contours'
p15
(tsS'components'
p16
(tsS'anchors'
p17
(tsssS'org.robofab.postScriptHintData'
p18
(dp19
s."
LayerCount: 2
Fore
SplineSet
147 22 m 257
 212 163 l 257
 464 163 l 257
 461 220 l 257
 237 220 l 257
 309 362 l 257
 464 362 l 257
 460 421 l 257
 336 421 l 257
 387 550 l 257
 339 556 l 257
 277 421 l 257
 31 421 l 257
 34 363 l 257
 250 363 l 257
 179 221 l 257
 32 221 l 257
 34 163 l 257
 152 163 l 257
 99 31 l 257
 147 22 l 257
EndSplineSet
EndChar

StartChar: numbersign
Encoding: 35 35 282
Width: 508
VWidth: 0
GlyphClass: 2
Flags: W
PickledData: "(dp1
S'org.pippin.gimp.org.kernagic'
p2
(dp3
S'lstem'
p4
I0
sS'rstem'
p5
I0
ssS'com.typemytype.robofont.layerData'
p6
(dp7
sS'org.robofab.postScriptHintData'
p8
(dp9
s."
LayerCount: 2
Fore
SplineSet
180 250 m 257
 223 458 l 257
 360 458 l 257
 319 250 l 257
 180 250 l 257
78 -8 m 257
 129 -8 l 257
 172 205 l 257
 308 205 l 257
 267 -8 l 257
 317 -8 l 257
 359 205 l 257
 463 205 l 257
 471 250 l 257
 368 250 l 257
 411 458 l 257
 508 458 l 257
 515 502 l 257
 419 502 l 257
 465 719 l 257
 416 719 l 257
 369 502 l 257
 232 502 l 257
 278 719 l 257
 226 719 l 257
 179 502 l 257
 87 502 l 257
 80 458 l 257
 171 458 l 257
 129 250 l 257
 36 250 l 257
 31 205 l 257
 120 205 l 257
 78 -8 l 257
EndSplineSet
EndChar

StartChar: o
Encoding: 111 111 283
Width: 533
VWidth: 0
GlyphClass: 2
Flags: W
PickledData: "(dp1
S'org.pippin.gimp.org.kernagic'
p2
(dp3
S'lstem'
p4
I0
sS'rstem'
p5
I0
ssS'org.robofab.postScriptHintData'
p6
(dp7
sS'com.typemytype.robofont.layerData'
p8
(dp9
sS'com.fontlab.hintData'
p10
(dp11
S'vhints'
p12
((dp13
S'position'
p14
I59
sS'width'
p15
I56
s(dp16
g14
I455
sg15
I56
stp17
sS'hhints'
p18
((dp19
g14
I-8
sg15
I42
s(dp20
g14
I455
sg15
I42
stp21
ssS'com.typemytype.robofont.guides'
p22
((dp23
S'y'
I1093
sS'x'
I582
sS'magnetic'
p24
I5
sS'angle'
p25
F90
sS'isGlobal'
p26
I00
stp27
s."
HStem: -8 42 455 42
VStem: 59 56 455 56
AnchorPoint: "top" 282 501 basechar 0
LayerCount: 2
Fore
SplineSet
282 -9 m 256
 428 -9 509 95 509 251 c 256
 509 409 430 513 282 513 c 256
 134 513 55 409 55 251 c 256
 55 95 135 -9 282 -9 c 256
282 53 m 256
 183 53 141 137 141 251 c 256
 141 368 184 451 282 451 c 256
 380 451 422 368 422 251 c 256
 422 137 380 53 282 53 c 256
EndSplineSet
Substitution2: "Single Substitution lookup 4 subtable" ordmasculine
EndChar

StartChar: oe
Encoding: 339 339 288
Width: 838
VWidth: 0
GlyphClass: 2
Flags: W
PickledData: "(dp1
S'org.pippin.gimp.org.kernagic'
p2
(dp3
S'lstem'
p4
I0
sS'rstem'
p5
I0
ssS'com.typemytype.robofont.layerData'
p6
(dp7
S'b'
(dp8
S'name'
p9
S'oe'
p10
sS'lib'
p11
(dp12
sS'unicodes'
p13
(tsS'width'
p14
F1915.3599999999999
sS'contours'
p15
(tsS'components'
p16
(tsS'anchors'
p17
(tsssS'org.robofab.postScriptHintData'
p18
(dp19
s."
LayerCount: 2
Fore
SplineSet
502 290 m 257
 510 389 570 452 650 452 c 256
 730 452 769 391 771 290 c 257
 502 290 l 257
275 53 m 256
 176 53 133 137 133 251 c 256
 133 368 176 451 275 451 c 256
 374 451 417 368 417 251 c 256
 417 137 374 53 275 53 c 256
840 288 m 258
 840 426 766 513 646 513 c 256
 571 513 494 467 462 395 c 257
 435 467 362 513 275 513 c 256
 128 513 50 409 50 251 c 256
 50 95 130 -9 275 -9 c 256
 360 -9 438 41 461 113 c 257
 492 40 578 -9 659 -9 c 256
 730 -9 786 13 826 40 c 257
 807 96 l 257
 802 96 l 257
 762 73 725 53 667 53 c 256
 578 53 501 104 500 236 c 257
 836 236 l 257
 836 236 840 263 840 278 c 258
 840 288 l 258
EndSplineSet
EndChar

StartChar: ogonek
Encoding: 731 731 289
Width: 336
VWidth: 0
GlyphClass: 4
Flags: W
PickledData: "(dp1
S'org.pippin.gimp.org.kernagic'
p2
(dp3
S'lstem'
p4
I0
sS'rstem'
p5
I0
ssS'com.typemytype.robofont.layerData'
p6
(dp7
sS'org.robofab.postScriptHintData'
p8
(dp9
s."
LayerCount: 2
Fore
SplineSet
205 -196 m 256
 228 -196 258 -189 274 -182 c 257
 272 -131 l 257
 264 -135 242 -142 222 -142 c 256
 201 -142 184 -131 184 -106 c 256
 184 -71 222 -19 250 2 c 257
 211 2 l 257
 165 -18 117 -71 117 -125 c 256
 117 -168 147 -196 205 -196 c 256
EndSplineSet
EndChar

StartChar: one
Encoding: 49 49 293
Width: 553
VWidth: 0
GlyphClass: 2
Flags: W
PickledData: "(dp1
S'org.pippin.gimp.org.kernagic'
p2
(dp3
S'lstem'
p4
I0
sS'rstem'
p5
I0
ssS'com.typemytype.robofont.layerData'
p6
(dp7
sS'org.robofab.postScriptHintData'
p8
(dp9
s."
LayerCount: 2
Fore
SplineSet
92 0 m 257
 519 0 l 257
 519 62 l 257
 358 62 l 257
 358 676 l 257
 281 676 l 257
 244 651 138 613 97 603 c 257
 97 535 l 257
 133 539 219 568 272 596 c 257
 272 62 l 257
 92 62 l 257
 92 0 l 257
EndSplineSet
EndChar

StartChar: onehalf
Encoding: 189 189 294
Width: 777
VWidth: 0
GlyphClass: 3
Flags: W
PickledData: "(dp1
S'org.pippin.gimp.org.kernagic'
p2
(dp3
S'lstem'
p4
I0
sS'rstem'
p5
I0
ssS'com.typemytype.robofont.layerData'
p6
(dp7
sS'org.robofab.postScriptHintData'
p8
(dp9
s."
LayerCount: 2
Fore
SplineSet
175 0 m 257
 239 0 l 257
 663 686 l 257
 600 686 l 257
 175 0 l 257
63 275 m 257
 264 275 l 257
 264 328 l 257
 199 328 l 257
 199 686 l 257
 147 686 l 257
 128 669 74 644 59 638 c 257
 59 584 l 257
 72 588 116 606 133 617 c 257
 133 328 l 257
 63 328 l 257
 63 275 l 257
535 0 m 257
 773 0 l 257
 775 55 l 257
 611 55 l 257
 692 132 l 258
 751 187 779 223 779 285 c 256
 779 361 720 404 646 404 c 256
 591 404 539 375 515 332 c 257
 550 294 l 257
 576 330 609 346 645 346 c 256
 683 346 715 324 715 281 c 256
 715 248 701 223 650 170 c 258
 534 53 l 257
 535 0 l 257
EndSplineSet
Ligature2: "fracDiagonalFractionslookup11 subtable" one slash two
EndChar

StartChar: onequarter
Encoding: 188 188 295
Width: 764
VWidth: 0
GlyphClass: 3
Flags: W
PickledData: "(dp1
S'org.pippin.gimp.org.kernagic'
p2
(dp3
S'lstem'
p4
I0
sS'rstem'
p5
I0
ssS'com.typemytype.robofont.layerData'
p6
(dp7
sS'org.robofab.postScriptHintData'
p8
(dp9
s."
LayerCount: 2
Fore
SplineSet
528 138 m 257
 646 319 l 257
 646 138 l 257
 528 138 l 257
175 0 m 257
 240 0 l 257
 664 686 l 257
 600 686 l 257
 175 0 l 257
647 0 m 257
 707 0 l 257
 707 89 l 257
 763 89 l 257
 760 138 l 257
 707 138 l 257
 707 398 l 257
 642 398 l 257
 460 134 l 257
 460 89 l 257
 647 89 l 257
 647 0 l 257
61 275 m 257
 262 275 l 257
 262 329 l 257
 197 329 l 257
 197 686 l 257
 144 686 l 257
 125 669 72 644 57 638 c 257
 57 583 l 257
 70 588 114 605 131 616 c 257
 131 329 l 257
 61 329 l 257
 61 275 l 257
EndSplineSet
Ligature2: "fracDiagonalFractionslookup11 subtable" one slash four
EndChar

StartChar: ordmasculine
Encoding: 186 186 297
Width: 423
VWidth: 0
GlyphClass: 2
Flags: W
PickledData: "(dp1
S'org.pippin.gimp.org.kernagic'
p2
(dp3
S'lstem'
p4
I0
sS'rstem'
p5
I0
ssS'com.typemytype.robofont.layerData'
p6
(dp7
S'b'
(dp8
S'name'
p9
S'ordmasculine'
p10
sS'lib'
p11
(dp12
sS'unicodes'
p13
(tsS'width'
p14
I965
sS'contours'
p15
(tsS'components'
p16
(tsS'anchors'
p17
(tsssS'org.robofab.postScriptHintData'
p18
(dp19
s."
LayerCount: 2
Fore
SplineSet
317 508 m 256
 317 430 286 384 223 384 c 256
 163 384 132 430 132 509 c 256
 132 589 163 635 223 635 c 256
 284 635 317 588 317 508 c 256
65 509 m 256
 65 408 122 330 223 330 c 256
 320 330 380 410 380 509 c 256
 380 613 327 688 223 688 c 256
 122 688 65 612 65 509 c 256
EndSplineSet
EndChar

StartChar: oslash
Encoding: 248 248 298
Width: 529
VWidth: 0
GlyphClass: 2
Flags: W
PickledData: "(dp1
S'org.pippin.gimp.org.kernagic'
p2
(dp3
S'lstem'
p4
I0
sS'rstem'
p5
I0
ssS'com.typemytype.robofont.layerData'
p6
(dp7
sS'org.robofab.postScriptHintData'
p8
(dp9
s."
LayerCount: 2
Fore
SplineSet
89 -58 m 257
 118 -76 l 257
 456 556 l 257
 422 574 l 257
 89 -58 l 257
EndSplineSet
Refer: 283 111 N 1 0 0 1 0 0 2
EndChar

StartChar: p
Encoding: 112 112 301
Width: 536
VWidth: 0
GlyphClass: 2
Flags: W
PickledData: "(dp1
S'org.pippin.gimp.org.kernagic'
p2
(dp3
S'lstem'
p4
I0
sS'rstem'
p5
I0
ssS'com.typemytype.robofont.layerData'
p6
(dp7
sS'com.fontlab.hintData'
p8
(dp9
S'vhints'
p10
((dp11
S'position'
p12
I90
sS'width'
p13
I57
s(dp14
g12
I90
sg13
I44
s(dp15
g12
I469
sg13
I57
stp16
sS'hhints'
p17
((dp18
g12
I-8
sg13
I42
s(dp19
g12
I455
sg13
I42
stp20
ssS'org.robofab.postScriptHintData'
p21
(dp22
s."
HStem: -8 42 455 42
VStem: 90 57 90 44 469 57
AnchorPoint: "top" 310 501 basechar 0
LayerCount: 2
Fore
SplineSet
292 53 m 256
 238 53 190 74 159 116 c 257
 159 267 l 257
 160 377 202 451 301 451 c 256
 395 451 425 367 425 251 c 256
 425 128 384 53 292 53 c 256
79 -213 m 257
 163 -213 l 257
 163 -32 l 257
 160 41 l 257
 192 9 239 -9 300 -9 c 256
 432 -9 512 98 512 251 c 256
 512 407 449 513 313 513 c 256
 238 513 181 474 157 398 c 257
 149 501 l 257
 79 501 l 257
 79 -213 l 257
EndSplineSet
EndChar

StartChar: paragraph
Encoding: 182 182 302
Width: 503
VWidth: 0
GlyphClass: 2
Flags: W
PickledData: "(dp1
S'org.pippin.gimp.org.kernagic'
p2
(dp3
S'lstem'
p4
I0
sS'rstem'
p5
I0
ssS'com.typemytype.robofont.layerData'
p6
(dp7
sS'org.robofab.postScriptHintData'
p8
(dp9
s."
LayerCount: 2
Fore
SplineSet
300 617 m 257
 364 617 l 257
 364 -95 l 257
 423 -95 l 257
 423 676 l 257
 259 676 l 258
 107 676 61 594 61 515 c 256
 61 434 110 355 240 355 c 257
 240 -95 l 257
 300 -95 l 257
 300 617 l 257
EndSplineSet
EndChar

StartChar: parenright
Encoding: 41 41 304
Width: 340
VWidth: 0
GlyphClass: 2
Flags: W
PickledData: "(dp1
S'org.pippin.gimp.org.kernagic'
p2
(dp3
S'lstem'
p4
I0
sS'rstem'
p5
I0
ssS'com.typemytype.robofont.layerData'
p6
(dp7
S'b'
(dp8
S'name'
p9
S'parenright'
p10
sS'lib'
p11
(dp12
sS'unicodes'
p13
(tsS'width'
p14
I766
sS'contours'
p15
(tsS'components'
p16
(tsS'anchors'
p17
(tsssS'org.robofab.postScriptHintData'
p18
(dp19
s."
LayerCount: 2
Fore
SplineSet
264 315 m 256
 264 467 222 615 145 738 c 257
 76 738 l 257
 76 722 l 257
 156 591 191 457 191 315 c 256
 191 173 156 38 76 -94 c 257
 76 -110 l 257
 145 -110 l 257
 222 13 264 164 264 315 c 256
EndSplineSet
EndChar

StartChar: partialdiff
Encoding: 8706 8706 305
Width: 519
VWidth: 0
GlyphClass: 2
Flags: W
PickledData: "(dp1
S'org.robofab.postScriptHintData'
p2
(dp3
s."
LayerCount: 2
Fore
SplineSet
225 41 m 256
 187 41 169 75 169 122 c 256
 169 221 251 379 403 384 c 257
 395 251 343 41 225 41 c 256
218 -8 m 256
 376 -8 486 177 486 421 c 256
 486 611 378 724 245 724 c 256
 203 724 155 711 110 687 c 257
 129 641 l 257
 163 657 195 664 226 664 c 256
 326 664 405 584 405 449 c 256
 405 443 404 433 404 427 c 257
 193 426 76 262 76 134 c 256
 76 55 121 -8 218 -8 c 256
EndSplineSet
EndChar

StartChar: percent
Encoding: 37 37 306
Width: 712
VWidth: 0
GlyphClass: 2
Flags: W
PickledData: "(dp1
S'org.pippin.gimp.org.kernagic'
p2
(dp3
S'lstem'
p4
I0
sS'rstem'
p5
I0
ssS'com.typemytype.robofont.layerData'
p6
(dp7
S'b'
(dp8
S'name'
p9
S'percent'
p10
sS'lib'
p11
(dp12
sS'unicodes'
p13
(tsS'width'
p14
I1563
sS'contours'
p15
(tsS'components'
p16
(tsS'anchors'
p17
(tsssS'org.robofab.postScriptHintData'
p18
(dp19
s."
LayerCount: 2
Fore
SplineSet
536 -2 m 256
 642 -2 681 76 681 176 c 256
 681 278 643 356 536 356 c 256
 433 356 394 276 394 176 c 256
 394 76 430 -2 536 -2 c 256
537 46 m 256
 465 46 452 102 452 177 c 256
 452 250 465 306 537 306 c 256
 608 306 623 253 623 177 c 256
 623 104 608 46 537 46 c 256
130 0 m 257
 196 0 l 257
 577 679 l 257
 516 679 l 257
 130 0 l 257
172 331 m 256
 278 331 317 410 317 510 c 256
 317 612 279 688 172 688 c 256
 69 688 32 610 32 510 c 256
 32 410 66 331 172 331 c 256
173 380 m 256
 101 380 87 435 87 511 c 256
 87 584 101 640 173 640 c 256
 244 640 258 587 258 511 c 256
 258 438 244 380 173 380 c 256
EndSplineSet
EndChar

StartChar: period
Encoding: 46 46 307
Width: 278
VWidth: 0
GlyphClass: 2
Flags: W
PickledData: "(dp1
S'org.pippin.gimp.org.kernagic'
p2
(dp3
S'lstem'
p4
I0
sS'rstem'
p5
I0
ssS'com.typemytype.robofont.layerData'
p6
(dp7
S'b'
(dp8
S'name'
p9
S'period'
p10
sS'lib'
p11
(dp12
sS'unicodes'
p13
(tsS'width'
p14
I624
sS'contours'
p15
(tsS'components'
p16
(tsS'anchors'
p17
(tsssS'org.robofab.postScriptHintData'
p18
(dp19
s."
LayerCount: 2
Fore
SplineSet
148 -4 m 256
 182 -4 197 16 197 53 c 256
 197 89 182 108 148 108 c 256
 113 108 99 89 99 53 c 256
 99 16 113 -4 148 -4 c 256
EndSplineSet
EndChar

StartChar: periodcentered
Encoding: 183 183 308
Width: 284
VWidth: 0
GlyphClass: 2
Flags: W
PickledData: "(dp1
S'org.pippin.gimp.org.kernagic'
p2
(dp3
S'lstem'
p4
I0
sS'rstem'
p5
I0
ssS'com.typemytype.robofont.layerData'
p6
(dp7
S'b'
(dp8
S'name'
p9
S'periodcentered'
p10
sS'lib'
p11
(dp12
sS'unicodes'
p13
(tsS'width'
p14
I653
sS'contours'
p15
(tsS'components'
p16
(tsS'anchors'
p17
(tsssS'org.robofab.postScriptHintData'
p18
(dp19
s."
LayerCount: 2
Fore
SplineSet
155 235 m 256
 187 235 209 256 209 289 c 256
 209 321 187 342 155 342 c 256
 123 342 100 321 100 289 c 256
 100 256 123 235 155 235 c 256
EndSplineSet
EndChar

StartChar: perthousand
Encoding: 8240 8240 309
Width: 1027
VWidth: 0
GlyphClass: 2
Flags: W
PickledData: "(dp1
S'org.pippin.gimp.org.kernagic'
p2
(dp3
S'lstem'
p4
I0
sS'rstem'
p5
I0
ssS'com.typemytype.robofont.layerData'
p6
(dp7
S'b'
(dp8
S'name'
p9
S'perthousand'
p10
sS'lib'
p11
(dp12
sS'unicodes'
p13
(tsS'width'
p14
I2251
sS'contours'
p15
(tsS'components'
p16
(tsS'anchors'
p17
(tsssS'org.robofab.postScriptHintData'
p18
(dp19
s."
LayerCount: 2
Fore
SplineSet
870 -2 m 256
 976 -2 1012 76 1012 176 c 256
 1012 278 977 356 870 356 c 256
 767 356 725 276 725 176 c 256
 725 76 764 -2 870 -2 c 256
870 46 m 256
 798 46 783 102 783 177 c 256
 783 250 798 306 870 306 c 256
 941 306 954 253 954 177 c 256
 954 104 941 46 870 46 c 256
EndSplineSet
Refer: 306 37 N 1 0 0 1 6 0 2
EndChar

StartChar: pi
Encoding: 960 960 310
Width: 634
VWidth: 0
GlyphClass: 2
Flags: W
PickledData: "(dp1
S'org.robofab.postScriptHintData'
p2
(dp3
sS'com.typemytype.robofont.layerData'
p4
(dp5
s."
LayerCount: 2
Fore
SplineSet
530 -5 m 256
 567 -5 597 5 613 21 c 257
 613 81 l 257
 599 77 575 65 555 65 c 256
 518 65 498 109 498 202 c 256
 498 255 503 332 515 420 c 257
 626 420 l 257
 626 501 l 257
 205 501 l 258
 92 501 57 459 57 357 c 257
 102 357 l 257
 107 393 127 420 165 420 c 258
 223 420 l 257
 193 185 l 258
 179 83 119 53 62 53 c 257
 62 2 l 257
 227 2 261 51 265 154 c 258
 278 420 l 257
 453 420 l 257
 438 312 419 205 419 130 c 256
 419 45 448 -5 530 -5 c 256
EndSplineSet
EndChar

StartChar: plus
Encoding: 43 43 311
Width: 501
VWidth: 0
GlyphClass: 2
Flags: W
PickledData: "(dp1
S'org.pippin.gimp.org.kernagic'
p2
(dp3
S'lstem'
p4
I0
sS'rstem'
p5
I0
ssS'com.typemytype.robofont.layerData'
p6
(dp7
S'b'
(dp8
S'name'
p9
S'plus'
p10
sS'lib'
p11
(dp12
sS'unicodes'
p13
(tsS'width'
p14
I1136
sS'contours'
p15
(tsS'components'
p16
(tsS'anchors'
p17
(tsssS'org.robofab.postScriptHintData'
p18
(dp19
s."
LayerCount: 2
Fore
SplineSet
221 539 m 257
 221 364 l 257
 54 364 l 257
 54 284 l 257
 221 284 l 257
 221 106 l 257
 303 106 l 257
 303 284 l 257
 469 284 l 257
 469 364 l 257
 303 364 l 257
 303 539 l 257
 221 539 l 257
EndSplineSet
EndChar

StartChar: plusminus
Encoding: 177 177 312
Width: 498
VWidth: 0
GlyphClass: 2
Flags: W
PickledData: "(dp1
S'org.pippin.gimp.org.kernagic'
p2
(dp3
S'lstem'
p4
I0
sS'rstem'
p5
I0
ssS'com.typemytype.robofont.layerData'
p6
(dp7
sS'org.robofab.postScriptHintData'
p8
(dp9
s."
LayerCount: 2
Fore
SplineSet
49 59 m 257
 49 0 l 257
 479 0 l 257
 479 59 l 257
 49 59 l 257
229 522 m 257
 229 345 l 257
 58 345 l 257
 58 285 l 257
 229 285 l 257
 229 102 l 257
 292 102 l 257
 292 285 l 257
 460 285 l 257
 460 345 l 257
 291 345 l 257
 291 522 l 257
 229 522 l 257
EndSplineSet
EndChar

StartChar: product
Encoding: 8719 8719 313
Width: 675
VWidth: 0
GlyphClass: 2
Flags: W
PickledData: "(dp1
S'org.pippin.gimp.org.kernagic'
p2
(dp3
S'lstem'
p4
I0
sS'rstem'
p5
I0
ssS'com.typemytype.robofont.layerData'
p6
(dp7
S'b'
(dp8
S'name'
p9
S'product'
p10
sS'lib'
p11
(dp12
sS'unicodes'
p13
(tsS'width'
p14
I1533
sS'contours'
p15
(tsS'components'
p16
(tsS'anchors'
p17
(tsssS'org.robofab.postScriptHintData'
p18
(dp19
s."
LayerCount: 2
Fore
SplineSet
92 696 m 257
 92 0 l 257
 173 0 l 257
 173 626 l 257
 541 626 l 257
 541 0 l 257
 623 0 l 257
 623 696 l 257
 92 696 l 257
EndSplineSet
EndChar

StartChar: q
Encoding: 113 113 314
Width: 533
VWidth: 0
GlyphClass: 2
Flags: W
PickledData: "(dp1
S'org.pippin.gimp.org.kernagic'
p2
(dp3
S'lstem'
p4
I0
sS'rstem'
p5
I0
ssS'com.typemytype.robofont.layerData'
p6
(dp7
sS'org.robofab.postScriptHintData'
p8
(dp9
s."
LayerCount: 2
Fore
SplineSet
280 53 m 256
 186 53 141 124 141 252 c 256
 141 374 187 451 279 451 c 256
 333 451 375 428 406 386 c 257
 406 109 l 257
 380 73 334 53 280 53 c 256
272 -9 m 256
 314 -9 367 2 405 41 c 257
 403 -11 l 257
 403 -213 l 257
 489 -213 l 257
 489 501 l 257
 417 501 l 257
 414 446 l 257
 386 484 337 513 273 513 c 256
 136 513 55 408 55 252 c 256
 55 96 131 -9 272 -9 c 256
EndSplineSet
EndChar

StartChar: question
Encoding: 63 63 315
Width: 405
VWidth: 0
GlyphClass: 2
Flags: W
PickledData: "(dp1
S'org.pippin.gimp.org.kernagic'
p2
(dp3
S'lstem'
p4
I0
sS'rstem'
p5
I0
ssS'com.typemytype.robofont.layerData'
p6
(dp7
sS'org.robofab.postScriptHintData'
p8
(dp9
s."
LayerCount: 2
Fore
SplineSet
172 -6 m 256
 209 -6 226 19 226 49 c 256
 226 76 209 102 172 102 c 256
 134 102 117 76 117 49 c 256
 117 21 134 -6 172 -6 c 256
154 199 m 257
 192 198 l 257
 243 365 356 388 356 528 c 256
 356 642 278 688 194 688 c 256
 136 688 89 669 54 642 c 257
 72 578 l 257
 93 593 138 619 185 619 c 256
 243 619 274 585 274 521 c 256
 274 422 164 345 154 199 c 257
EndSplineSet
EndChar

StartChar: quotedbl
Encoding: 34 34 317
Width: 308
VWidth: 0
GlyphClass: 2
Flags: W
PickledData: "(dp1
S'org.robofab.postScriptHintData'
p2
(dp3
sS'com.typemytype.robofont.layerData'
p4
(dp5
s."
LayerCount: 2
Fore
SplineSet
217 461 m 257
 260 461 l 257
 278 709 l 257
 189 709 l 257
 217 461 l 257
79 461 m 257
 119 461 l 257
 137 709 l 257
 50 709 l 257
 79 461 l 257
EndSplineSet
EndChar

StartChar: quotedblbase
Encoding: 8222 8222 318
Width: 335
VWidth: 0
GlyphClass: 2
Flags: W
PickledData: "(dp1
S'org.robofab.postScriptHintData'
p2
(dp3
s."
LayerCount: 2
Fore
SplineSet
194 -146 m 257
 249 -146 l 257
 300 75 l 257
 216 75 l 257
 194 -146 l 257
51 -146 m 257
 107 -146 l 257
 156 75 l 257
 74 75 l 257
 51 -146 l 257
EndSplineSet
EndChar

StartChar: quotedblleft
Encoding: 8220 8220 319
Width: 397
VWidth: 0
GlyphClass: 2
Flags: W
PickledData: "(dp1
S'org.robofab.postScriptHintData'
p2
(dp3
sS'com.typemytype.robofont.layerData'
p4
(dp5
s."
LayerCount: 2
Fore
SplineSet
237 473 m 257
 327 473 l 257
 348 698 l 257
 288 698 l 257
 237 473 l 257
73 473 m 257
 163 473 l 257
 185 698 l 257
 125 698 l 257
 73 473 l 257
EndSplineSet
EndChar

StartChar: quotedblright
Encoding: 8221 8221 320
Width: 397
VWidth: 0
GlyphClass: 2
Flags: W
PickledData: "(dp1
S'org.robofab.postScriptHintData'
p2
(dp3
sS'com.typemytype.robofont.layerData'
p4
(dp5
s."
LayerCount: 2
Fore
SplineSet
73 473 m 257
 134 473 l 257
 185 698 l 257
 95 698 l 257
 73 473 l 257
237 473 m 257
 298 473 l 257
 348 698 l 257
 259 698 l 257
 237 473 l 257
EndSplineSet
EndChar

StartChar: quoteleft
Encoding: 8216 8216 321
Width: 230
VWidth: 0
GlyphClass: 2
Flags: W
PickledData: "(dp1
S'org.robofab.postScriptHintData'
p2
(dp3
sS'com.typemytype.robofont.layerData'
p4
(dp5
s."
LayerCount: 2
Fore
SplineSet
185 698 m 257
 125 698 l 257
 73 473 l 257
 163 473 l 257
 185 698 l 257
EndSplineSet
EndChar

StartChar: quoteright
Encoding: 8217 8217 322
Width: 230
VWidth: 0
GlyphClass: 2
Flags: W
PickledData: "(dp1
S'org.robofab.postScriptHintData'
p2
(dp3
sS'com.typemytype.robofont.layerData'
p4
(dp5
s."
LayerCount: 2
Fore
SplineSet
73 473 m 257
 134 473 l 257
 185 698 l 257
 95 698 l 257
 73 473 l 257
EndSplineSet
EndChar

StartChar: quotesinglbase
Encoding: 8218 8218 323
Width: 201
VWidth: 0
GlyphClass: 2
Flags: W
PickledData: "(dp1
S'org.robofab.postScriptHintData'
p2
(dp3
s."
LayerCount: 2
Fore
SplineSet
45 -146 m 257
 102 -146 l 257
 155 75 l 257
 72 75 l 257
 45 -146 l 257
EndSplineSet
EndChar

StartChar: quotesingle
Encoding: 39 39 324
Width: 181
VWidth: 0
GlyphClass: 2
Flags: W
PickledData: "(dp1
S'org.robofab.postScriptHintData'
p2
(dp3
s."
LayerCount: 2
Fore
SplineSet
71 443 m 257
 118 443 l 257
 132 698 l 257
 47 698 l 257
 71 443 l 257
EndSplineSet
EndChar

StartChar: r
Encoding: 114 114 325
Width: 343
VWidth: 0
GlyphClass: 2
Flags: W
PickledData: "(dp1
S'org.pippin.gimp.org.kernagic'
p2
(dp3
S'lstem'
p4
I0
sS'rstem'
p5
I352
ssS'com.typemytype.robofont.layerData'
p6
(dp7
sS'com.fontlab.hintData'
p8
(dp9
S'vhints'
p10
((dp11
S'position'
p12
I90
sS'width'
p13
I57
s(dp14
g12
I90
sg13
I42
stp15
sS'hhints'
p16
((dp17
g12
I452
sg13
I43
stp18
ssS'org.robofab.postScriptHintData'
p19
(dp20
s."
HStem: 452 43
VStem: 90 57 90 42
AnchorPoint: "top" 215 501 basechar 0
AnchorPoint: "bot" 137 0 basechar 0
LayerCount: 2
Fore
SplineSet
80 0 m 257
 164 0 l 257
 164 285 l 258
 164 370 212 439 312 439 c 258
 313 439 l 257
 331 439 l 257
 338 506 l 257
 325 508 315 509 301 509 c 256
 244 509 190 479 156 397 c 257
 148 501 l 257
 80 501 l 257
 80 0 l 257
EndSplineSet
EndChar

StartChar: radical
Encoding: 8730 8730 327
Width: 508
VWidth: 0
GlyphClass: 2
Flags: W
PickledData: "(dp1
S'org.pippin.gimp.org.kernagic'
p2
(dp3
S'lstem'
p4
I0
sS'rstem'
p5
I0
ssS'com.typemytype.robofont.layerData'
p6
(dp7
S'b'
(dp8
S'name'
p9
S'radical'
p10
sS'lib'
p11
(dp12
sS'unicodes'
p13
(tsS'width'
p14
I1136
sS'contours'
p15
(tsS'components'
p16
(tsS'anchors'
p17
(tsssS'org.robofab.postScriptHintData'
p18
(dp19
s."
LayerCount: 2
Fore
SplineSet
462 792 m 257
 405 555 335 264 279 27 c 257
 238 161 188 287 144 417 c 257
 23 388 l 257
 30 332 l 257
 99 346 l 257
 250 -76 l 257
 319 -76 l 257
 521 792 l 257
 462 792 l 257
EndSplineSet
EndChar

StartChar: registered
Encoding: 174 174 330
Width: 812
VWidth: 0
GlyphClass: 2
Flags: W
PickledData: "(dp1
S'org.pippin.gimp.org.kernagic'
p2
(dp3
S'lstem'
p4
I0
sS'rstem'
p5
I0
ssS'com.typemytype.robofont.layerData'
p6
(dp7
sS'org.robofab.postScriptHintData'
p8
(dp9
s."
LayerCount: 2
Fore
SplineSet
425 -11 m 256
 600 -11 773 112 773 338 c 256
 773 564 600 686 425 686 c 256
 251 686 80 564 80 338 c 256
 80 112 251 -11 425 -11 c 256
425 32 m 256
 273 32 131 141 131 338 c 256
 131 535 273 644 425 644 c 256
 577 644 723 534 723 338 c 256
 723 141 577 32 425 32 c 256
346 379 m 257
 346 513 l 257
 426 513 l 258
 500 513 528 506 528 448 c 256
 528 398 505 379 441 379 c 258
 346 379 l 257
291 137 m 257
 345 137 l 257
 345 335 l 257
 438 335 l 257
 442 331 536 137 536 137 c 257
 595 137 l 257
 595 137 498 330 492 340 c 257
 553 347 581 390 581 451 c 256
 581 528 541 559 435 559 c 258
 291 559 l 257
 291 137 l 257
EndSplineSet
EndChar

StartChar: ring
Encoding: 730 730 331
Width: 312
VWidth: 0
GlyphClass: 4
Flags: W
PickledData: "(dp1
S'org.robofab.postScriptHintData'
p2
(dp3
sS'com.typemytype.robofont.layerData'
p4
(dp5
s."
AnchorPoint: "top" 159 495 mark 0
LayerCount: 2
Fore
SplineSet
159 555 m 256
 212 555 250 595 250 642 c 256
 250 689 212 728 159 728 c 256
 106 728 72 689 72 642 c 256
 72 595 106 555 159 555 c 256
159 593 m 256
 133 593 116 616 116 642 c 256
 116 666 133 689 159 689 c 256
 185 689 205 666 205 642 c 256
 205 617 185 593 159 593 c 256
EndSplineSet
EndChar

StartChar: s
Encoding: 115 115 332
Width: 431
VWidth: 0
GlyphClass: 2
Flags: W
PickledData: "(dp1
S'org.pippin.gimp.org.kernagic'
p2
(dp3
S'lstem'
p4
I168
sS'rstem'
p5
I620
ssS'org.robofab.postScriptHintData'
p6
(dp7
sS'com.typemytype.robofont.layerData'
p8
(dp9
sS'com.fontlab.hintData'
p10
(dp11
S'vhints'
p12
((dp13
S'position'
p14
I65
sS'width'
p15
I50
s(dp16
g14
I342
sg15
I49
stp17
sS'hhints'
p18
((dp19
g14
I-8
sg15
I42
s(dp20
g14
I455
sg15
I42
stp21
ssS'com.typemytype.robofont.guides'
p22
((dp23
S'y'
I381
sS'x'
I77
sS'magnetic'
p24
I5
sS'angle'
p25
F90
sS'isGlobal'
p26
I00
stp27
s."
HStem: -8 42 455 42
VStem: 65 50 342 49
AnchorPoint: "top" 235 502 basechar 0
AnchorPoint: "bot" 222 0 basechar 0
LayerCount: 2
Fore
SplineSet
336 142 m 256
 336 81 298 53 234 53 c 256
 188 53 131 67 91 113 c 257
 83 113 l 257
 40 71 l 257
 81 18 154 -9 234 -9 c 256
 332 -9 413 36 413 146 c 256
 413 202 393 249 274 288 c 257
 218 305 l 258
 149 327 137 343 137 377 c 256
 137 421 165 450 236 450 c 256
 290 450 330 429 353 402 c 257
 357 402 l 257
 403 440 l 257
 373 482 315 513 235 513 c 256
 123 513 54 461 54 378 c 256
 54 318 70 277 191 239 c 258
 248 221 l 258
 325 198 336 175 336 142 c 256
EndSplineSet
EndChar

StartChar: section
Encoding: 167 167 338
Width: 471
VWidth: 0
GlyphClass: 2
Flags: W
PickledData: "(dp1
S'org.pippin.gimp.org.kernagic'
p2
(dp3
S'lstem'
p4
I0
sS'rstem'
p5
I0
ssS'com.typemytype.robofont.layerData'
p6
(dp7
S'b'
(dp8
S'name'
p9
S'section'
p10
sS'lib'
p11
(dp12
sS'unicodes'
p13
(tsS'width'
p14
I1079
sS'contours'
p15
(tsS'components'
p16
(tsS'anchors'
p17
(tsssS'org.robofab.postScriptHintData'
p18
(dp19
s."
LayerCount: 2
Fore
SplineSet
320 266 m 257
 307 271 291 278 230 297 c 256
 167 318 151 329 151 368 c 256
 151 394 159 412 180 425 c 257
 184 423 193 421 249 402 c 256
 320 379 339 355 339 321 c 256
 339 298 333 280 320 266 c 257
240 -9 m 256
 332 -9 410 32 410 136 c 256
 410 177 400 207 376 231 c 257
 396 254 410 284 410 324 c 256
 410 396 386 436 279 470 c 256
 168 506 154 517 154 555 c 256
 154 597 177 625 249 625 c 256
 300 625 346 608 373 593 c 257
 392 652 l 257
 350 674 299 688 241 688 c 256
 138 688 77 634 77 552 c 256
 77 514 86 482 118 458 c 257
 92 435 78 402 78 364 c 256
 78 304 102 265 194 234 c 256
 317 194 337 171 337 135 c 256
 337 82 303 53 247 53 c 258
 243 53 l 258
 190 53 141 71 88 96 c 257
 88 27 l 257
 134 4 189 -9 240 -9 c 256
EndSplineSet
EndChar

StartChar: semicolon
Encoding: 59 59 339
Width: 314
VWidth: 0
GlyphClass: 2
Flags: W
PickledData: "(dp1
S'org.pippin.gimp.org.kernagic'
p2
(dp3
S'lstem'
p4
I0
sS'rstem'
p5
I0
ssS'com.typemytype.robofont.layerData'
p6
(dp7
sS'org.robofab.postScriptHintData'
p8
(dp9
s."
LayerCount: 2
Fore
SplineSet
173 385 m 256
 212 385 230 413 230 444 c 256
 230 475 212 503 173 503 c 256
 134 503 115 475 115 444 c 256
 115 413 134 385 173 385 c 256
115 -141 m 257
 165 -141 l 257
 218 69 l 257
 218 111 l 257
 134 111 l 257
 134 108 115 -141 115 -141 c 257
EndSplineSet
EndChar

StartChar: seven
Encoding: 55 55 340
Width: 553
VWidth: 0
GlyphClass: 2
Flags: W
PickledData: "(dp1
S'org.pippin.gimp.org.kernagic'
p2
(dp3
S'lstem'
p4
I0
sS'rstem'
p5
I0
ssS'com.typemytype.robofont.layerData'
p6
(dp7
sS'org.robofab.postScriptHintData'
p8
(dp9
s."
LayerCount: 2
Fore
SplineSet
159 0 m 257
 246 0 l 257
 498 613 l 257
 498 676 l 257
 79 676 l 257
 88 607 l 257
 408 607 l 257
 159 0 l 257
EndSplineSet
EndChar

StartChar: six
Encoding: 54 54 341
Width: 553
VWidth: 0
GlyphClass: 2
Flags: W
PickledData: "(dp1
S'org.pippin.gimp.org.kernagic'
p2
(dp3
S'lstem'
p4
I0
sS'rstem'
p5
I0
ssS'com.typemytype.robofont.layerData'
p6
(dp7
sS'org.robofab.postScriptHintData'
p8
(dp9
s."
LayerCount: 2
Fore
SplineSet
300 58 m 256
 209 58 161 126 161 205 c 256
 161 315 244 349 303 349 c 256
 391 349 440 288 440 206 c 256
 440 127 391 58 300 58 c 256
302 -9 m 256
 438 -9 524 87 524 206 c 256
 524 332 439 414 332 414 c 256
 276 414 236 390 206 365 c 257
 279 464 352 566 425 665 c 257
 425 676 l 257
 336 676 l 257
 177 460 l 258
 115 375 79 308 79 209 c 256
 79 94 161 -9 302 -9 c 256
EndSplineSet
EndChar

StartChar: slash
Encoding: 47 47 342
Width: 425
VWidth: 0
GlyphClass: 2
Flags: W
PickledData: "(dp1
S'org.pippin.gimp.org.kernagic'
p2
(dp3
S'lstem'
p4
I0
sS'rstem'
p5
I0
ssS'com.typemytype.robofont.layerData'
p6
(dp7
S'b'
(dp8
S'name'
p9
S'slash'
p10
sS'lib'
p11
(dp12
sS'unicodes'
p13
(tsS'width'
p14
I965
sS'contours'
p15
(tsS'components'
p16
(tsS'anchors'
p17
(tsssS'org.robofab.postScriptHintData'
p18
(dp19
s."
LayerCount: 2
Fore
SplineSet
59 -68 m 257
 129 -68 l 257
 415 724 l 257
 344 724 l 257
 59 -68 l 257
EndSplineSet
EndChar

StartChar: slashbar
Encoding: 65541 -1 343
Width: 374
VWidth: 0
GlyphClass: 4
Flags: W
PickledData: "(dp1
S'org.pippin.gimp.org.kernagic'
p2
(dp3
S'lstem'
p4
I0
sS'rstem'
p5
I0
ssS'com.typemytype.robofont.layerData'
p6
(dp7
S'b'
(dp8
S'name'
p9
S'slashbar'
p10
sS'lib'
p11
(dp12
sS'unicodes'
p13
(tsS'width'
p14
I908
sS'contours'
p15
(tsS'components'
p16
(tsS'anchors'
p17
(tsssS'org.robofab.postScriptHintData'
p18
(dp19
s."
LayerCount: 2
Fore
SplineSet
85 225 m 257
 360 376 l 257
 360 438 l 257
 85 287 l 257
 85 225 l 257
EndSplineSet
EndChar

StartChar: sterling
Encoding: 163 163 345
Width: 502
VWidth: 0
GlyphClass: 2
Flags: W
PickledData: "(dp1
S'org.pippin.gimp.org.kernagic'
p2
(dp3
S'lstem'
p4
I0
sS'rstem'
p5
I0
ssS'com.typemytype.robofont.layerData'
p6
(dp7
S'b'
(dp8
S'name'
p9
S'sterling'
p10
sS'lib'
p11
(dp12
sS'unicodes'
p13
(tsS'width'
p14
I1136
sS'contours'
p15
((dp16
S'points'
p17
((dp18
S'segmentType'
p19
S'line'
p20
sS'x'
I20
sS'smooth'
p21
I00
sS'y'
I0
s(dp22
g19
S'line'
p23
sS'x'
I8
sg21
I00
sS'y'
I115
s(dp24
g19
S'line'
p25
sS'x'
I180
sg21
I00
sS'y'
I132
s(dp26
g19
S'line'
p27
sS'x'
I180
sg21
I00
sS'y'
I683
s(dp28
g19
S'line'
p29
sS'x'
I8
sg21
I00
sS'y'
I683
s(dp30
g19
S'line'
p31
sS'x'
I8
sg21
I00
sS'y'
I806
s(dp32
g19
S'line'
p33
sS'x'
I180
sg21
I00
sS'y'
I806
s(dp34
g19
S'line'
p35
sS'x'
I180
sg21
I01
sS'y'
I920
s(dp36
S'y'
I1183
sS'x'
I180
sg21
I00
s(dp37
S'y'
I1476
sS'x'
I245
sg21
I00
s(dp38
g19
S'curve'
p39
sS'x'
I598
sg21
I01
sS'y'
I1476
s(dp40
S'y'
I1476
sS'x'
I742
sg21
I00
s(dp41
S'y'
I1421
sS'x'
I854
sg21
I00
s(dp42
g19
S'curve'
p43
sS'x'
I939
sg21
I00
sS'y'
I1347
s(dp44
g19
S'line'
p45
sS'x'
I871
sg21
I00
sS'y'
I1229
s(dp46
S'y'
I1297
sS'x'
I785
sg21
I00
s(dp47
S'y'
I1334
sS'x'
I700
sg21
I00
s(dp48
g19
S'curve'
p49
sS'x'
I598
sg21
I01
sS'y'
I1334
s(dp50
S'y'
I1334
sS'x'
I397
sg21
I00
s(dp51
S'y'
I1179
sS'x'
I356
sg21
I00
s(dp52
g19
S'curve'
p53
sS'x'
I356
sg21
I01
sS'y'
I949
s(dp54
g19
S'line'
p55
sS'x'
I356
sg21
I00
sS'y'
I806
s(dp56
g19
S'line'
p57
sS'x'
I739
sg21
I00
sS'y'
I806
s(dp58
g19
S'line'
p59
sS'x'
I739
sg21
I00
sS'y'
I683
s(dp60
g19
S'line'
p61
sS'x'
I356
sg21
I00
sS'y'
I683
s(dp62
g19
S'line'
p63
sS'x'
I356
sg21
I00
sS'y'
I134
s(dp64
g19
S'line'
p65
sS'x'
I953
sg21
I00
sS'y'
I134
s(dp66
g19
S'line'
p67
sS'x'
I940
sg21
I00
sS'y'
I0
stp68
stp69
sS'components'
p70
(tsS'anchors'
p71
(tsssS'org.robofab.postScriptHintData'
p72
(dp73
s."
LayerCount: 2
Fore
SplineSet
204 443 m 258
 204 559 243 615 320 615 c 256
 372 615 400 593 433 568 c 257
 441 568 l 257
 472 624 l 257
 441 654 391 688 309 688 c 256
 155 688 114 569 114 443 c 258
 114 376 l 257
 34 376 l 257
 34 317 l 257
 114 317 l 257
 114 66 l 257
 34 58 l 257
 40 0 l 257
 471 0 l 257
 476 68 l 257
 204 68 l 257
 204 317 l 257
 378 317 l 257
 378 376 l 257
 204 376 l 257
 204 443 l 258
EndSplineSet
EndChar

StartChar: t
Encoding: 116 116 347
Width: 351
VWidth: 0
GlyphClass: 2
Flags: W
PickledData: "(dp1
S'org.pippin.gimp.org.kernagic'
p2
(dp3
S'lstem'
p4
I189
sS'rstem'
p5
I480
ssS'com.typemytype.robofont.layerData'
p6
(dp7
sS'com.fontlab.hintData'
p8
(dp9
S'vhints'
p10
((dp11
S'position'
p12
I113
sS'width'
p13
I57
s(dp14
g12
I133
sg13
I37
stp15
sS'hhints'
p16
((dp17
g12
I-4
sg13
I39
stp18
ssS'org.robofab.postScriptHintData'
p19
(dp20
s."
HStem: -4 39
VStem: 113 57 133 37
AnchorPoint: "top" 155 640 basechar 0
AnchorPoint: "bot" 221 0 basechar 0
LayerCount: 2
Fore
SplineSet
271 -4 m 258
 319 -4 l 257
 322 56 l 257
 271 58 l 258
 196 61 192 76 192 155 c 258
 192 451 l 257
 325 451 l 257
 325 501 l 257
 192 501 l 257
 192 642 l 257
 121 638 l 257
 110 501 l 257
 31 497 l 257
 27 451 l 257
 108 451 l 257
 108 155 l 258
 108 36 129 -4 271 -4 c 258
EndSplineSet
EndChar

StartChar: thorn
Encoding: 254 254 351
Width: 531
VWidth: 0
GlyphClass: 2
Flags: W
PickledData: "(dp1
S'org.pippin.gimp.org.kernagic'
p2
(dp3
S'lstem'
p4
I0
sS'rstem'
p5
I0
ssS'com.typemytype.robofont.layerData'
p6
(dp7
S'b'
(dp8
S'name'
p9
S'thorn'
p10
sS'lib'
p11
(dp12
sS'unicodes'
p13
(tsS'width'
p14
I1221
sS'contours'
p15
(tsS'components'
p16
(tsS'anchors'
p17
(tsssS'org.robofab.postScriptHintData'
p18
(dp19
s."
LayerCount: 2
Fore
SplineSet
52 157 m 257
 52 -213 l 257
 133 -213 l 257
 133 157 l 257
 52 157 l 257
EndSplineSet
Refer: 152 98 N 1 0 0 1 -24 0 2
EndChar

StartChar: three
Encoding: 51 51 352
Width: 547
VWidth: 0
GlyphClass: 2
Flags: W
PickledData: "(dp1
S'org.pippin.gimp.org.kernagic'
p2
(dp3
S'lstem'
p4
I0
sS'rstem'
p5
I0
ssS'com.typemytype.robofont.layerData'
p6
(dp7
sS'org.robofab.postScriptHintData'
p8
(dp9
s."
LayerCount: 2
Fore
SplineSet
358 357 m 257
 443 377 483 433 483 509 c 256
 483 616 411 685 289 685 c 256
 227 685 124 665 79 570 c 257
 128 531 l 257
 137 531 l 257
 174 591 223 613 282 613 c 258
 289 613 l 258
 364 613 401 573 401 509 c 258
 401 501 l 258
 401 402 308 388 233 388 c 258
 198 388 l 257
 210 319 l 257
 232 319 l 258
 351 319 418 289 418 182 c 256
 418 101 360 61 286 61 c 256
 240 61 174 77 137 137 c 257
 130 137 l 257
 80 98 l 257
 125 18 215 -9 287 -9 c 256
 425 -9 502 77 502 178 c 256
 502 270 453 340 358 357 c 257
EndSplineSet
EndChar

StartChar: threequarters
Encoding: 190 190 353
Width: 768
VWidth: 0
GlyphClass: 3
Flags: W
PickledData: "(dp1
S'org.pippin.gimp.org.kernagic'
p2
(dp3
S'lstem'
p4
I0
sS'rstem'
p5
I0
ssS'com.typemytype.robofont.layerData'
p6
(dp7
sS'org.robofab.postScriptHintData'
p8
(dp9
s."
LayerCount: 2
Fore
SplineSet
547 138 m 257
 667 319 l 257
 667 138 l 257
 547 138 l 257
198 0 m 257
 264 0 l 257
 688 686 l 257
 624 686 l 257
 198 0 l 257
667 0 m 257
 727 0 l 257
 727 89 l 257
 783 89 l 257
 781 138 l 257
 728 138 l 257
 728 398 l 257
 662 398 l 257
 480 134 l 257
 480 89 l 257
 667 89 l 257
 667 0 l 257
166 274 m 256
 235 274 298 314 298 396 c 256
 298 440 270 478 223 493 c 257
 272 505 289 551 289 585 c 256
 289 655 231 685 169 685 c 256
 129 685 88 671 56 647 c 257
 79 604 l 257
 111 623 142 631 166 631 c 256
 202 631 226 611 226 574 c 256
 226 537 198 515 154 515 c 258
 110 515 l 257
 110 461 l 257
 155 461 l 258
 209 461 235 439 235 395 c 256
 235 349 205 329 166 329 c 256
 139 329 105 340 78 357 c 257
 56 309 l 257
 88 286 128 274 166 274 c 256
EndSplineSet
Ligature2: "fracDiagonalFractionslookup11 subtable" three slash four
EndChar

StartChar: tilde
Encoding: 732 732 354
Width: 434
VWidth: 0
GlyphClass: 4
Flags: W
PickledData: "(dp1
S'org.robofab.postScriptHintData'
p2
(dp3
sS'com.typemytype.robofont.layerData'
p4
(dp5
sS'com.fontlab.hintData'
p6
(dp7
S'vhints'
p8
((dp9
S'position'
p10
I79
sS'width'
p11
I30
s(dp12
g10
I305
sg11
I32
stp13
sS'hhints'
p14
((dp15
g10
I604
sg11
I41
s(dp16
g10
I650
sg11
I37
stp17
ss."
HStem: 604 41 650 37
VStem: 79 30 305 32
AnchorPoint: "top" 229 495 mark 0
LayerCount: 2
Fore
SplineSet
80 601 m 257
 123 601 l 257
 127 635 139 646 155 646 c 256
 189 646 243 601 292 601 c 256
 334 601 363 636 363 699 c 257
 319 699 l 257
 315 668 305 659 290 659 c 256
 262 659 213 699 157 699 c 256
 108 699 80 664 80 601 c 257
EndSplineSet
EndChar

StartChar: trademark
Encoding: 8482 8482 355
Width: 966
VWidth: 0
GlyphClass: 2
Flags: W
PickledData: "(dp1
S'org.robofab.postScriptHintData'
p2
(dp3
sS'com.typemytype.robofont.layerData'
p4
(dp5
S'b'
(dp6
S'name'
p7
S'trademark'
p8
sS'lib'
p9
(dp10
sS'unicodes'
p11
(tsS'width'
p12
I2216
sS'contours'
p13
(tsS'components'
p14
(tsS'anchors'
p15
(tsss."
LayerCount: 2
Fore
SplineSet
182 243 m 257
 249 243 l 257
 249 621 l 257
 395 621 l 257
 395 676 l 257
 38 676 l 257
 38 621 l 257
 182 621 l 257
 182 243 l 257
452 243 m 257
 513 243 l 257
 515 588 l 257
 655 293 l 257
 704 293 l 257
 844 585 l 257
 849 243 l 257
 908 243 l 257
 899 676 l 257
 832 676 l 257
 680 368 l 257
 531 676 l 257
 460 676 l 257
 452 243 l 257
EndSplineSet
EndChar

StartChar: two
Encoding: 50 50 356
Width: 553
VWidth: 0
GlyphClass: 2
Flags: W
PickledData: "(dp1
S'org.pippin.gimp.org.kernagic'
p2
(dp3
S'lstem'
p4
I0
sS'rstem'
p5
I0
ssS'com.typemytype.robofont.layerData'
p6
(dp7
sS'org.robofab.postScriptHintData'
p8
(dp9
s."
LayerCount: 2
Fore
SplineSet
123 551 m 257
 158 591 218 613 275 613 c 256
 347 613 413 578 413 490 c 256
 413 416 384 383 319 320 c 258
 68 74 l 257
 80 0 l 257
 481 0 l 257
 486 71 l 257
 167 71 l 257
 369 265 l 258
 460 353 494 397 494 491 c 256
 494 620 395 685 278 685 c 256
 199 685 120 654 74 601 c 257
 115 551 l 257
 123 551 l 257
EndSplineSet
EndChar

StartChar: u
Encoding: 117 117 357
Width: 532
VWidth: 0
GlyphClass: 2
Flags: W
PickledData: "(dp1
S'org.pippin.gimp.org.kernagic'
p2
(dp3
S'lstem'
p4
I0
sS'rstem'
p5
I0
ssS'com.typemytype.robofont.layerData'
p6
(dp7
sS'com.fontlab.hintData'
p8
(dp9
S'vhints'
p10
((dp11
S'position'
p12
I75
sS'width'
p13
I77
s(dp14
g12
I400
sg13
I77
stp15
sS'hhints'
p16
((dp17
g12
I-9
sg13
I59
stp18
ssS'org.robofab.postScriptHintData'
p19
(dp20
s."
HStem: -9 59
VStem: 75 77 400 77
AnchorPoint: "top" 289 502 basechar 0
AnchorPoint: "bot" 264 0 basechar 0
LayerCount: 2
Fore
SplineSet
402 119 m 257
 383 95 342 53 263 53 c 256
 184 53 156 102 156 189 c 258
 156 501 l 257
 72 501 l 257
 72 187 l 258
 72 56 133 -9 251 -9 c 256
 325 -9 374 20 408 62 c 257
 414 0 l 257
 486 0 l 257
 486 501 l 257
 402 501 l 257
 402 119 l 257
EndSplineSet
EndChar

StartChar: underscore
Encoding: 95 95 365
Width: 397
VWidth: 0
GlyphClass: 2
Flags: W
PickledData: "(dp1
S'org.pippin.gimp.org.kernagic'
p2
(dp3
S'lstem'
p4
I0
sS'rstem'
p5
I0
ssS'com.typemytype.robofont.layerData'
p6
(dp7
sS'org.robofab.postScriptHintData'
p8
(dp9
s."
LayerCount: 2
Fore
SplineSet
0 -121 m 257
 420 -121 l 257
 420 -61 l 257
 0 -61 l 257
 0 -121 l 257
EndSplineSet
EndChar

StartChar: uni00AD
Encoding: 173 173 367
Width: 386
VWidth: 0
GlyphClass: 2
Flags: W
PickledData: "(dp1
S'org.robofab.postScriptHintData'
p2
(dp3
s."
LayerCount: 2
Fore
SplineSet
49 229 m 257
 359 229 l 257
 359 296 l 257
 49 296 l 257
 49 229 l 257
EndSplineSet
EndChar

StartChar: uni00B2
Encoding: 178 178 368
Width: 344
VWidth: 0
GlyphClass: 2
Flags: W
PickledData: "(dp1
S'org.robofab.postScriptHintData'
p2
(dp3
sS'com.typemytype.robofont.layerData'
p4
(dp5
s."
LayerCount: 2
Fore
SplineSet
71 300 m 257
 308 300 l 257
 313 349 l 257
 156 349 l 257
 207 398 210 399 247 436 c 256
 289 479 313 521 313 574 c 256
 313 653 253 697 189 697 c 256
 128 697 85 674 53 633 c 257
 80 593 l 257
 104 625 142 643 186 643 c 256
 226 643 254 615 254 573 c 256
 254 547 234 513 203 477 c 256
 144 412 120 398 71 349 c 257
 71 300 l 257
EndSplineSet
EndChar

StartChar: uni00B3
Encoding: 179 179 369
Width: 384
VWidth: 0
GlyphClass: 2
Flags: W
PickledData: "(dp1
S'org.robofab.postScriptHintData'
p2
(dp3
sS'com.typemytype.robofont.layerData'
p4
(dp5
s."
LayerCount: 2
Fore
SplineSet
203 291 m 256
 275 291 338 328 338 405 c 256
 338 456 306 491 263 502 c 257
 307 513 334 548 334 593 c 256
 334 666 275 695 211 695 c 256
 160 695 112 678 80 651 c 257
 102 613 l 257
 127 634 163 648 204 648 c 256
 246 648 279 629 279 588 c 256
 279 550 256 525 198 525 c 258
 146 525 l 257
 146 479 l 257
 197 479 l 257
 199 479 l 258
 254 479 284 449 284 407 c 256
 284 362 247 339 202 339 c 256
 160 339 123 355 101 376 c 257
 78 331 l 257
 109 306 156 291 203 291 c 256
EndSplineSet
EndChar

StartChar: uni00B9
Encoding: 185 185 371
Width: 387
VWidth: 0
GlyphClass: 2
Flags: W
PickledData: "(dp1
S'org.robofab.postScriptHintData'
p2
(dp3
sS'com.typemytype.robofont.layerData'
p4
(dp5
s."
LayerCount: 2
Fore
SplineSet
121 291 m 257
 343 291 l 257
 343 344 l 257
 266 344 l 257
 266 689 l 257
 214 689 l 257
 197 674 142 651 118 641 c 257
 118 588 l 257
 133 591 183 612 201 623 c 257
 201 344 l 257
 121 344 l 257
 121 291 l 257
EndSplineSet
EndChar

StartChar: uni02C9
Encoding: 713 713 436
Width: 262
VWidth: 0
GlyphClass: 4
Flags: W
PickledData: "(dp1
S'org.robofab.postScriptHintData'
p2
(dp3
s."
AnchorPoint: "top" 142 495 mark 0
LayerCount: 2
Fore
SplineSet
-4 611 m 257
 280 611 l 257
 280 671 l 257
 -4 671 l 257
 -4 611 l 257
EndSplineSet
EndChar

StartChar: uni0307
Encoding: 775 775 437
Width: 191
VWidth: 0
GlyphClass: 4
Flags: W
PickledData: "(dp1
S'org.robofab.postScriptHintData'
p2
(dp3
sS'com.typemytype.robofont.layerData'
p4
(dp5
s."
LayerCount: 2
Fore
SplineSet
163 673 m 256
 163 708 141 728 103 728 c 256
 65 728 44 708 44 673 c 256
 44 637 65 616 103 616 c 256
 141 616 163 637 163 673 c 256
EndSplineSet
EndChar

StartChar: uni2074
Encoding: 8308 8308 456
Width: 307
VWidth: 0
GlyphClass: 2
Flags: W
PickledData: "(dp1
S'org.robofab.postScriptHintData'
p2
(dp3
sS'com.typemytype.robofont.layerData'
p4
(dp5
s."
LayerCount: 2
Fore
SplineSet
83 432 m 257
 190 614 l 257
 190 432 l 257
 83 432 l 257
190 288 m 257
 248 288 l 257
 247 384 l 257
 300 384 l 257
 303 432 l 257
 248 432 l 257
 248 690 l 257
 186 690 l 257
 22 434 l 257
 22 384 l 257
 190 384 l 257
 190 288 l 257
EndSplineSet
EndChar

StartChar: uni2113
Encoding: 8467 8467 457
Width: 534
VWidth: 0
GlyphClass: 2
Flags: W
PickledData: "(dp1
S'org.robofab.postScriptHintData'
p2
(dp3
s."
LayerCount: 2
Fore
SplineSet
293 374 m 257
 338 547 l 258
 358 627 366 692 420 708 c 256
 431 711 441 714 449 714 c 256
 492 714 511 676 511 642 c 256
 511 563 465 510 391 451 c 258
 293 374 l 257
140 122 m 256
 140 29 189 -9 261 -9 c 256
 367 -9 436 45 436 45 c 257
 424 102 l 257
 377 77 336 61 298 61 c 256
 258 61 239 84 239 126 c 256
 239 145 243 168 249 194 c 258
 273 291 l 257
 410 401 l 258
 523 492 567 545 567 643 c 256
 567 739 499 783 427 783 c 256
 365 783 298 752 270 648 c 258
 175 297 l 257
 37 192 l 257
 58 155 l 257
 157 229 l 257
 145 188 140 152 140 122 c 256
EndSplineSet
EndChar

StartChar: Delta
Encoding: 8710 8710 459
Width: 563
VWidth: 0
GlyphClass: 2
Flags: W
PickledData: "(dp1
S'org.pippin.gimp.org.kernagic'
p2
(dp3
S'lstem'
p4
I0
sS'rstem'
p5
I0
ssS'com.typemytype.robofont.layerData'
p6
(dp7
S'b'
(dp8
S'name'
p9
S'uni2206'
p10
sS'lib'
p11
(dp12
sS'unicodes'
p13
(tsS'width'
p14
I1278
sS'contours'
p15
(tsS'components'
p16
(tsS'anchors'
p17
(tsssS'org.robofab.postScriptHintData'
p18
(dp19
s."
LayerCount: 2
Fore
SplineSet
311 555 m 257
 474 80 l 257
 121 80 l 257
 281 555 l 257
 297 610 l 257
 311 555 l 257
254 716 m 257
 31 40 l 257
 31 0 l 257
 566 0 l 257
 566 40 l 257
 341 716 l 257
 254 716 l 257
EndSplineSet
EndChar

StartChar: v
Encoding: 118 118 470
Width: 474
VWidth: 0
GlyphClass: 2
Flags: W
PickledData: "(dp1
S'org.pippin.gimp.org.kernagic'
p2
(dp3
S'lstem'
p4
I0
sS'rstem'
p5
I0
ssS'com.typemytype.robofont.guides'
p6
((dp7
S'y'
I552
sS'x'
I438
sS'magnetic'
p8
I5
sS'angle'
p9
I0
sS'isGlobal'
p10
I00
stp11
sS'com.typemytype.robofont.layerData'
p12
(dp13
sS'org.robofab.postScriptHintData'
p14
(dp15
s."
LayerCount: 2
Fore
SplineSet
210 0 m 257
 297 0 l 257
 475 501 l 257
 391 501 l 257
 347 366 299 234 254 99 c 257
 207 232 160 366 115 501 c 257
 28 501 l 257
 210 0 l 257
EndSplineSet
EndChar

StartChar: w
Encoding: 119 119 471
Width: 662
VWidth: 0
GlyphClass: 2
Flags: W
PickledData: "(dp1
S'org.pippin.gimp.org.kernagic'
p2
(dp3
S'lstem'
p4
I0
sS'rstem'
p5
I0
ssS'com.typemytype.robofont.layerData'
p6
(dp7
sS'org.robofab.postScriptHintData'
p8
(dp9
s."
AnchorPoint: "top" 353 501 basechar 0
LayerCount: 2
Fore
SplineSet
353 421 m 257
 481 0 l 257
 557 0 l 257
 688 501 l 257
 612 501 l 257
 517 110 l 257
 395 501 l 257
 307 501 l 257
 191 110 l 257
 91 501 l 257
 12 501 l 257
 148 0 l 257
 224 0 l 257
 353 421 l 257
EndSplineSet
EndChar

StartChar: x
Encoding: 120 120 476
Width: 464
VWidth: 0
GlyphClass: 2
Flags: W
PickledData: "(dp1
S'org.pippin.gimp.org.kernagic'
p2
(dp3
S'lstem'
p4
I0
sS'rstem'
p5
I0
ssS'com.typemytype.robofont.layerData'
p6
(dp7
sS'com.fontlab.hintData'
p8
(dp9
S'hhints'
p10
((dp11
S'position'
p12
I0
sS'width'
p13
I11
s(dp14
g12
I479
sg13
I9
stp15
ssS'org.robofab.postScriptHintData'
p16
(dp17
s."
HStem: 0 11 479 9
LayerCount: 2
Fore
SplineSet
293 255 m 257
 462 501 l 257
 378 501 l 257
 252 316 l 257
 129 501 l 257
 34 501 l 257
 201 254 l 257
 23 0 l 257
 110 0 l 257
 241 194 l 257
 372 0 l 257
 464 0 l 257
 293 255 l 257
EndSplineSet
EndChar

StartChar: y
Encoding: 121 121 477
Width: 496
VWidth: 0
GlyphClass: 2
Flags: W
PickledData: "(dp1
S'org.pippin.gimp.org.kernagic'
p2
(dp3
S'lstem'
p4
I0
sS'rstem'
p5
I0
ssS'com.typemytype.robofont.layerData'
p6
(dp7
sS'org.robofab.postScriptHintData'
p8
(dp9
s."
AnchorPoint: "top" 270 501 basechar 0
LayerCount: 2
Fore
SplineSet
502 501 m 257
 421 501 l 257
 269 113 l 257
 107 501 l 257
 18 501 l 257
 227 20 l 257
 153 -174 l 257
 225 -192 l 257
 502 501 l 257
EndSplineSet
EndChar

StartChar: yen
Encoding: 165 165 481
Width: 599
VWidth: 0
GlyphClass: 2
Flags: W
PickledData: "(dp1
S'org.pippin.gimp.org.kernagic'
p2
(dp3
S'lstem'
p4
I0
sS'rstem'
p5
I0
ssS'com.typemytype.robofont.layerData'
p6
(dp7
S'b'
(dp8
S'name'
p9
S'yen'
p10
sS'lib'
p11
(dp12
sS'unicodes'
p13
(tsS'width'
p14
I1366
sS'contours'
p15
(tsS'components'
p16
(tsS'anchors'
p17
(tsssS'org.robofab.postScriptHintData'
p18
(dp19
s."
LayerCount: 2
Fore
SplineSet
119 236 m 257
 501 236 l 257
 501 288 l 257
 119 288 l 257
 119 236 l 257
119 118 m 257
 501 118 l 257
 501 170 l 257
 119 170 l 257
 119 118 l 257
EndSplineSet
Refer: 121 89 N 1 0 0 1 0 0 2
EndChar

StartChar: z
Encoding: 122 122 483
Width: 444
VWidth: 0
GlyphClass: 2
Flags: W
PickledData: "(dp1
S'org.pippin.gimp.org.kernagic'
p2
(dp3
S'lstem'
p4
I0
sS'rstem'
p5
I0
ssS'com.typemytype.robofont.layerData'
p6
(dp7
sS'org.robofab.postScriptHintData'
p8
(dp9
s."
AnchorPoint: "top" 237 501 basechar 0
AnchorPoint: "bot" 224 0 basechar 0
LayerCount: 2
Fore
SplineSet
56 501 m 257
 59 441 l 257
 324 441 l 257
 46 54 l 257
 46 0 l 257
 417 0 l 257
 414 62 l 257
 140 62 l 257
 413 444 l 257
 413 501 l 257
 56 501 l 257
EndSplineSet
EndChar

StartChar: zero
Encoding: 48 48 487
Width: 553
VWidth: 0
GlyphClass: 2
Flags: W
PickledData: "(dp1
S'org.pippin.gimp.org.kernagic'
p2
(dp3
S'lstem'
p4
I0
sS'rstem'
p5
I0
ssS'com.typemytype.robofont.layerData'
p6
(dp7
S'b'
(dp8
S'name'
p9
S'zero'
p10
sS'lib'
p11
(dp12
sS'unicodes'
p13
(tsS'width'
p14
I1248
sS'contours'
p15
(tsS'components'
p16
(tsS'anchors'
p17
(tsssS'org.robofab.postScriptHintData'
p18
(dp19
s."
LayerCount: 2
Fore
SplineSet
294 -9 m 256
 454 -9 524 121 524 327 c 256
 524 543 448 685 294 685 c 256
 140 685 61 543 61 327 c 256
 61 121 134 -9 294 -9 c 256
294 62 m 256
 203 62 148 137 148 329 c 256
 148 513 203 613 294 613 c 256
 385 613 437 524 437 329 c 256
 437 136 385 62 294 62 c 256
EndSplineSet
EndChar

StartChar: Sigma
Encoding: 931 931 489
Width: 467
VWidth: 0
GlyphClass: 2
Flags: W
LayerCount: 2
Fore
SplineSet
40 676 m 257
 40 626 l 257
 264 289 l 257
 31 -44 l 257
 31 -92 l 257
 480 -92 l 257
 480 -17 l 257
 144 -17 l 257
 363 287 l 257
 153 604 l 257
 460 604 l 257
 460 676 l 257
 40 676 l 257
EndSplineSet
EndChar

StartChar: uni03BC
Encoding: 956 956 490
Width: 525
VWidth: 0
GlyphClass: 2
Flags: W
LayerCount: 2
Fore
SplineSet
402 119 m 257
 383 95 342 53 263 53 c 256
 184 53 156 102 156 189 c 258
 156 501 l 257
 72 501 l 257
 72 -134 l 257
 156 -134 l 257
 156 11 l 257
 181 -3 213 -9 251 -9 c 256
 325 -9 374 20 408 62 c 257
 414 0 l 257
 486 0 l 257
 486 501 l 257
 402 501 l 257
 402 119 l 257
EndSplineSet
EndChar

StartChar: emptyset
Encoding: 8709 8709 491
Width: 737
VWidth: 0
GlyphClass: 2
Flags: W
LayerCount: 2
Fore
SplineSet
53 340 m 256
 53 534 212 683 385 683 c 256
 465 683 545 650 605 596 c 257
 687 688 l 257
 704 676 l 257
 621 582 l 257
 681 521 720 436 720 340 c 256
 720 146 558 -3 385 -3 c 256
 306 -3 231 27 171 80 c 257
 81 -20 l 257
 68 -6 l 257
 156 94 l 257
 94 155 53 242 53 340 c 256
185 95 m 257
 241 46 311 17 385 17 c 256
 548 17 700 158 700 340 c 256
 700 430 664 509 607 567 c 257
 185 95 l 257
170 109 m 257
 592 582 l 257
 535 634 461 663 385 663 c 256
 222 663 72 522 72 340 c 256
 72 248 111 167 170 109 c 257
EndSplineSet
EndChar

StartChar: uni03A9
Encoding: 937 937 492
Width: 703
VWidth: 0
GlyphClass: 2
Flags: W
LayerCount: 2
Fore
SplineSet
57 0 m 257
 51 54 l 257
 217 54 l 257
 124 118 57 224 57 358 c 256
 57 548 193 671 378 671 c 256
 569 671 689 535 689 357 c 256
 689 220 608 116 527 54 c 257
 691 54 l 257
 686 0 l 257
 452 0 l 257
 451 52 l 257
 547 115 616 219 616 348 c 256
 616 489 535 612 376 612 c 256
 230 612 129 506 129 350 c 256
 129 221 195 115 294 52 c 257
 294 0 l 257
 57 0 l 257
EndSplineSet
EndChar

StartChar: uni0358
Encoding: 856 856 493
Width: 191
VWidth: 0
GlyphClass: 4
Flags: W
LayerCount: 2
Fore
SplineSet
163 673 m 256
 163 708 141 728 103 728 c 256
 65 728 44 708 44 673 c 256
 44 637 65 616 103 616 c 256
 141 616 163 637 163 673 c 256
EndSplineSet
EndChar

StartChar: uni0259
Encoding: 601 601 494
Width: 502
VWidth: 0
GlyphClass: 2
Flags: W
PickledData: "(dp1
S'com.fontlab.hintData'
p2
(dp3
S'hhints'
p4
((dp5
S'position'
p6
I470
sS'width'
p7
I43
s(dp8
g6
I5
sg7
I42
stp9
ss."
HStem: 470 43 5 42
LayerCount: 2
Fore
SplineSet
401 213 m 257
 393 114 334 53 254 53 c 256
 174 53 136 113 135 213 c 257
 401 213 l 257
66 268 m 257
 66 267 62 231 62 216 c 256
 62 78 137 -9 259 -9 c 256
 386 -9 489 87 489 254 c 256
 489 414 384 513 248 513 c 256
 177 513 118 491 77 463 c 257
 96 408 l 257
 101 408 l 257
 142 431 179 451 237 451 c 256
 328 451 395 397 402 268 c 257
 66 268 l 257
EndSplineSet
EndChar
